<?xml version="1.0" encoding="utf-8"?>
<!-- Generator: Adobe Illustrator 17.0.0, SVG Export Plug-In . SVG Version: 6.00 Build 0)  -->
<!DOCTYPE svg PUBLIC "-//W3C//DTD SVG 1.1//EN" "http://www.w3.org/Graphics/SVG/1.1/DTD/svg11.dtd">
<svg version="1.1" id="Layer_1" xmlns="http://www.w3.org/2000/svg" xmlns:xlink="http://www.w3.org/1999/xlink" x="0px" y="0px"
	 width="76.971px" height="68.518px" viewBox="0 0 76.971 68.518" enable-background="new 0 0 76.971 68.518" xml:space="preserve">
<g>
	<path fill="#DF1F26" stroke="#DF1F26" stroke-miterlimit="10" d="M14.416,14.978c0.063-0.209,0.104-0.349,0.104-0.349
		c-0.267,0.299-0.304,0.466-0.346,0.651c-0.039,0.188-0.078,0.399-0.35,0.79c0.167-0.249,0.136-0.381,0.12-0.447
		c0,0-0.123,0.173-0.307,0.433c-0.092,0.13-0.199,0.282-0.313,0.445c-0.107,0.168-0.221,0.347-0.336,0.526
		c-0.228,0.358-0.46,0.714-0.612,0.994c-0.158,0.277-0.264,0.461-0.264,0.461c0.153-0.038,0.758-0.807,0.493-0.211
		c0.129-0.092,0.268-0.347,0.394-0.588c0.095-0.193,0.165-0.386,0.175-0.507l0.01,0.219c0.116-0.385,0.335-0.633,0.509-0.715
		c0.177-0.08,0.295-0.005,0.208,0.237l0.034-0.055c0,0,0.134-0.557,0.268-1.114C14.27,15.462,14.354,15.186,14.416,14.978z"/>
	<path fill="#DF1F26" stroke="#DF1F26" stroke-miterlimit="10" d="M66.225,27.772c0.058,0.146,0.121,0.284,0.198,0.406
		C66.307,27.76,66.258,27.716,66.225,27.772z"/>
	<path fill="#DF1F26" stroke="#DF1F26" stroke-miterlimit="10" d="M14.922,13.404c-0.125,0.258-0.216,0.498-0.241,0.698
		c0,0,0.053-0.178,0.117-0.35C14.859,13.578,14.922,13.404,14.922,13.404z"/>
	<path fill="#DF1F26" stroke="#DF1F26" stroke-miterlimit="10" d="M26.818,4.133c0.069-0.033,0.128-0.062,0.211-0.102
		C26.951,4.064,26.882,4.098,26.818,4.133z"/>
	<path fill="#DF1F26" stroke="#DF1F26" stroke-miterlimit="10" d="M14.703,14.444c-0.038-0.058-0.047-0.177-0.023-0.342l-0.16,0.527
		C14.569,14.574,14.639,14.508,14.703,14.444z"/>
	<path fill="#DF1F26" stroke="#DF1F26" stroke-miterlimit="10" d="M14.191,16.649c0.134-0.249,0.277-0.522,0.425-0.83l-0.679,1.042
		c0,0-0.007,0.03-0.016,0.076c-0.009,0.046-0.02,0.107-0.032,0.167c-0.023,0.121-0.046,0.242-0.046,0.242
		c0.051-0.108,0.103-0.221,0.159-0.339C14.058,16.89,14.126,16.774,14.191,16.649z"/>
	<path fill="#DF1F26" stroke="#DF1F26" stroke-miterlimit="10" d="M30.434,1.622c-0.05-0.019-0.122-0.03-0.17-0.037
		C30.309,1.606,30.369,1.616,30.434,1.622z"/>
	<path fill="#DF1F26" stroke="#DF1F26" stroke-miterlimit="10" d="M15.713,12.801c0.062,0.032,0.019,0.174-0.113,0.562
		c0.09-0.168,0.134-0.293,0.161-0.397c0.029-0.103,0.042-0.185,0.066-0.274c0.048-0.177,0.143-0.377,0.53-0.791
		c-0.096,0.217-0.095,0.409,0.025,0.453c0.06,0.022,0.15,0.007,0.272-0.059c0.123-0.066,0.273-0.188,0.475-0.362
		c0.212-0.258,0.409-0.514,0.594-0.769c0.091-0.129,0.185-0.252,0.278-0.373c0.091-0.124,0.181-0.245,0.269-0.366
		c0.177-0.242,0.34-0.491,0.511-0.727c0.172-0.238,0.341-0.473,0.51-0.706c0.33-0.482,0.694-0.925,1.076-1.394
		c0.189-0.237,0.4-0.454,0.619-0.68c0.22-0.223,0.449-0.452,0.698-0.674c0.107,0.082,0.595-0.149,1.168-0.453
		c0.142-0.079,0.294-0.153,0.448-0.227c0.153-0.075,0.307-0.151,0.457-0.225c0.301-0.144,0.579-0.292,0.814-0.376
		c-0.118,0.194-0.325,0.404-0.589,0.603c-0.261,0.204-0.582,0.392-0.898,0.603c0.207-0.116,0.503-0.248,0.806-0.401
		c0.152-0.075,0.308-0.152,0.46-0.226c0.076-0.037,0.151-0.074,0.224-0.11c0.075-0.032,0.147-0.064,0.217-0.094l0.005-0.576
		c1.255-0.598,1.141-0.423,0.863-0.169c-0.276,0.26-0.705,0.611-0.113,0.399c0.168-0.088,0.303-0.176,0.422-0.254
		c0.119-0.076,0.219-0.149,0.31-0.219c0.182-0.14,0.332-0.269,0.543-0.386c-0.985,0.479-0.978,0.303-0.978,0.118
		c0.003-0.18-0.008-0.393-1.01,0.122c0.072-0.226,0.4-0.493,0.815-0.707c0.416-0.209,0.909-0.386,1.283-0.48
		c0.471,0.023,0.309,0.14,0.03,0.309c-0.277,0.175-0.675,0.398-0.701,0.591c0.811-0.376,0.639-0.387,0.934-0.694
		c0.683-0.189,1.339-0.534,1.967-0.757c0.312-0.116,0.609-0.223,0.89-0.27c0.282-0.044,0.543-0.045,0.775,0.024
		c0.49-0.151,0.711-0.267,0.88-0.368c0.168-0.105,0.281-0.214,0.559-0.356c0.027-0.192-0.363-0.173-0.816-0.13
		c-0.359,0.045-0.753,0.111-1.012,0.087c0.04,0.015,0.066,0.035,0.051,0.062c0,0-0.225,0.032-0.451,0.065
		c-0.226,0.029-0.449,0.075-0.449,0.075c0.215-0.029,0.323-0.012,0.354,0.023c0.031,0.035-0.013,0.089-0.097,0.151
		c-0.167,0.13-0.492,0.291-0.707,0.368c-0.317,0.097-0.943,0.296-0.886,0.177c0,0,0.113-0.06,0.228-0.112
		c0.115-0.054,0.231-0.107,0.231-0.107c-0.331,0.027-0.65,0.208-0.974,0.378c-0.324,0.172-0.655,0.324-1.008,0.353
		c-0.063-0.065,0.166-0.195,0.187-0.254c-0.319,0.249-0.644,0.449-1.018,0.648c-0.376,0.194-0.783,0.427-1.258,0.74l0.448-0.605
		c-0.332,0.377-0.979,0.726-1.687,1.099c-0.721,0.346-1.501,0.72-2.174,0.984c0.167-0.029,0.436-0.131,0.325,0.014
		c-0.171,0.12-0.333,0.227-0.484,0.306c-0.15,0.079-0.288,0.132-0.398,0.158c-0.22,0.051-0.333-0.009-0.222-0.195
		c-0.13,0.177-0.373,0.348-0.66,0.545c-0.286,0.198-0.628,0.405-0.977,0.622c-0.176,0.105-0.346,0.224-0.511,0.344
		c-0.166,0.119-0.326,0.241-0.476,0.363c-0.149,0.122-0.287,0.246-0.407,0.371c-0.116,0.128-0.213,0.259-0.287,0.387
		c0,0-0.164,0.296-0.41,0.741c-0.125,0.218-0.255,0.485-0.393,0.768c-0.136,0.281-0.281,0.58-0.426,0.88
		c-0.137,0.303-0.264,0.611-0.384,0.893c-0.117,0.286-0.233,0.542-0.316,0.775c-0.166,0.459-0.277,0.764-0.277,0.764
		c0.083-0.167,0.181-0.338,0.3-0.5C15.486,12.845,15.648,12.767,15.713,12.801z"/>
	<path fill="#DF1F26" stroke="#DF1F26" stroke-miterlimit="10" d="M19.917,8.664c-0.044,0.006-0.104,0.029-0.199,0.086
		C19.786,8.727,19.851,8.696,19.917,8.664z"/>
	<path fill="#DF1F26" stroke="#DF1F26" stroke-miterlimit="10" d="M22.884,6.305c0.066-0.045,0.132-0.09,0.199-0.136
		C23.011,6.207,22.93,6.25,22.88,6.277C22.876,6.29,22.882,6.295,22.884,6.305z"/>
	<path fill="#DF1F26" stroke="#DF1F26" stroke-miterlimit="10" d="M15.528,14.319c-0.049,0.162-0.108,0.262-0.146,0.43
		c0.04-0.09,0.098-0.197,0.159-0.297C15.587,14.348,15.595,14.287,15.528,14.319z"/>
	<path fill="#DF1F26" stroke="#DF1F26" stroke-miterlimit="10" d="M14.856,14.45l-0.027-0.13c-0.051,0.046-0.082,0.082-0.126,0.125
		C14.735,14.493,14.783,14.506,14.856,14.45z"/>
	<path fill="#DF1F26" stroke="#DF1F26" stroke-miterlimit="10" d="M35.192,4.259l0.242-0.072
		C35.286,4.202,35.224,4.228,35.192,4.259z"/>
	<path fill="#DF1F26" stroke="#DF1F26" stroke-miterlimit="10" d="M21.393,7.606c-0.455,0.184-0.924,0.785-1.476,1.057
		c0.289-0.036-0.421,0.875,0.674-0.112c-0.085,0.084-0.007,0.067-0.091,0.15c0.871-0.396,1.017-0.851,1.702-1.301
		c0.48-0.145-0.553,0.616-0.138,0.415c0.098-0.082,0.214-0.167,0.343-0.256c0.132-0.083,0.276-0.167,0.426-0.252
		c0.3-0.168,0.616-0.346,0.903-0.507c0.582-0.307,1.023-0.595,0.881-0.811c0.16-0.095,0.294-0.155,0.404-0.196
		c0.11-0.042,0.197-0.067,0.271-0.081c0.148-0.028,0.243-0.014,0.363-0.016c0.105-0.123,0.249-0.24,0.418-0.351
		c0.17-0.11,0.371-0.202,0.584-0.296c0.214-0.092,0.441-0.179,0.671-0.262c0.228-0.088,0.468-0.145,0.694-0.215
		c0.902-0.28,1.674-0.458,1.574-0.797c-0.205,0.073-0.478,0.153-0.771,0.257c-0.288,0.117-0.596,0.256-0.871,0.428l-0.155-0.457
		c-0.447,0.166-0.443,0.259-0.484,0.372c-0.041,0.113-0.128,0.24-0.746,0.484l0.372-0.122c-0.84,0.469-2.381,1.109-3.373,1.654
		c0.023-0.093-0.154-0.059-0.328-0.019c-0.175,0.037-0.356,0.066-0.355-0.067c-0.325,0.219-0.652,0.432-0.918,0.65
		C21.705,7.181,21.496,7.4,21.393,7.606z"/>
	<path fill="#DF1F26" stroke="#DF1F26" stroke-miterlimit="10" d="M16.568,13.098c-0.021,0.02-0.042,0.041-0.062,0.062
		C16.526,13.142,16.547,13.12,16.568,13.098z"/>
	<path fill="#DF1F26" stroke="#DF1F26" stroke-miterlimit="10" d="M16.633,13.037c-0.019,0.015-0.042,0.038-0.065,0.061
		C16.59,13.076,16.613,13.056,16.633,13.037z"/>
	<path fill="#DF1F26" stroke="#DF1F26" stroke-miterlimit="10" d="M8.911,21.241c0.058,0.128,0.132,0.268,0.321-0.246
		c0.299-0.471,0.414-0.883,0.497-1.275c0.039-0.197,0.084-0.381,0.139-0.563c0.056-0.182,0.124-0.359,0.226-0.532l-0.077,0.239
		c0.416-0.636,0.888-1.472,1.021-2.073c0.632-0.327-1.009,1.933-0.133,1.085c-0.269,0.322-0.46,0.792-0.628,1.243
		c-0.082,0.226-0.165,0.445-0.228,0.65c-0.064,0.205-0.125,0.389-0.187,0.536c0.131-0.232,0.269-0.451,0.417-0.634
		c0.151-0.182,0.299-0.335,0.432-0.448c0.265-0.225,0.467-0.288,0.499-0.106c0.195-0.528,0.274-0.804,0.259-0.969
		c-0.012-0.163-0.104-0.206-0.199-0.24c-0.188-0.067-0.389-0.095,0.052-1.006l0.818-1.127c0,0-0.006-0.04-0.015-0.101
		c-0.007-0.06-0.017-0.139-0.026-0.219c-0.018-0.16-0.036-0.32-0.036-0.32c0.485-0.691-0.015,0.619,0.703-0.447
		c0.01-0.1,0.057-0.212,0.124-0.326c0.07-0.111,0.16-0.225,0.249-0.335c0.179-0.221,0.356-0.426,0.384-0.567
		c0.027,0.044,0.058,0.086,0.135,0.053c0.08-0.03,0.191-0.146,0.414-0.39c-0.011-0.067-0.176-0.126,0.166-0.518
		c0.277,0.004,0.075,0.269-0.108,0.507c-0.188,0.235-0.339,0.458-0.007,0.344c0.964-1.099,0.34-0.948,0.367-1.223
		c-0.025,0.046-0.093,0.094-0.195,0.201c-0.092-0.1,0.411-0.501,0.245-0.56c-0.178,0.182-0.314,0.399-0.427,0.593
		c0.096-0.215-0.077-0.121-0.314,0.071c-0.118,0.096-0.253,0.216-0.376,0.334c-0.118,0.122-0.225,0.243-0.297,0.332
		c-0.121,0.238-0.298,0.518-0.509,0.823c-0.206,0.308-0.431,0.651-0.673,0.997c-0.247,0.342-0.475,0.713-0.701,1.065
		c-0.111,0.177-0.22,0.351-0.325,0.518c-0.101,0.169-0.189,0.338-0.274,0.496c0.045-0.118,0.135-0.353,0.003-0.25
		c-0.25,0.446-0.476,0.818-0.675,1.169c-0.192,0.355-0.369,0.68-0.55,1.014c-0.045,0.084-0.089,0.168-0.135,0.254
		c-0.041,0.088-0.083,0.176-0.126,0.267c-0.084,0.181-0.17,0.37-0.259,0.572c-0.087,0.202-0.185,0.414-0.273,0.649
		c-0.086,0.236-0.176,0.49-0.27,0.767l0.279,0.543C8.726,22.116,8.799,21.7,8.911,21.241z M9.332,20.276
		c0,0-0.085,0.164-0.171,0.328c-0.043,0.082-0.085,0.164-0.118,0.226c-0.03,0.063-0.049,0.104-0.049,0.104
		C9.08,20.658,9.197,20.407,9.332,20.276z"/>
	<path fill="#DF1F26" stroke="#DF1F26" stroke-miterlimit="10" d="M14.49,12.232c0.009-0.016,0.013-0.032,0.011-0.05
		C14.494,12.2,14.491,12.216,14.49,12.232z"/>
	<path fill="#DF1F26" stroke="#DF1F26" stroke-miterlimit="10" d="M64.101,47.942c-0.006-0.106,0.01-0.222,0.026-0.339
		C64.081,47.811,64.036,47.993,64.101,47.942z"/>
	<path fill="#DF1F26" stroke="#DF1F26" stroke-miterlimit="10" d="M64.191,47.297c-0.028,0.104-0.049,0.208-0.064,0.306
		C64.151,47.501,64.176,47.391,64.191,47.297z"/>
	<path fill="#DF1F26" stroke="#DF1F26" stroke-miterlimit="10" d="M37.8,62.922c-0.036-0.03-0.092-0.056-0.168-0.066
		C37.654,62.915,37.715,62.929,37.8,62.922z"/>
	<path fill="#DF1F26" stroke="#DF1F26" stroke-miterlimit="10" d="M64.898,44.397l0.019-0.028c0.002-0.03,0.009-0.066,0.005-0.087
		L64.898,44.397z"/>
	<path fill="#DF1F26" stroke="#DF1F26" stroke-miterlimit="10" d="M7.191,30.544L7.1,30.36C7.136,30.511,7.165,30.558,7.191,30.544z
		"/>
	<path fill="#DF1F26" stroke="#DF1F26" stroke-miterlimit="10" d="M7.126,34.916C7.118,34.91,7.109,34.904,7.1,34.894
		C7.11,34.909,7.118,34.909,7.126,34.916z"/>
	<path fill="#DF1F26" stroke="#DF1F26" stroke-miterlimit="10" d="M7.126,34.916c0.009,0.003,0.018,0.01,0.025,0.002
		C7.143,34.918,7.135,34.921,7.126,34.916z"/>
	<path fill="#DF1F26" stroke="#DF1F26" stroke-miterlimit="10" d="M16.169,53.381c0,0-0.01-0.08-0.047-0.185
		C16.076,53.186,16.082,53.234,16.169,53.381z"/>
	<path fill="#DF1F26" stroke="#DF1F26" stroke-miterlimit="10" d="M13.93,50.003c-0.007-0.027-0.008-0.044-0.018-0.077L13.93,50.003
		z"/>
	<path fill="#DF1F26" stroke="#DF1F26" stroke-miterlimit="10" d="M7.1,34.894c-0.032-0.042-0.067-0.103-0.112-0.204
		C7.036,34.801,7.071,34.86,7.1,34.894z"/>
	<path fill="#DF1F26" stroke="#DF1F26" stroke-miterlimit="10" d="M21.644,56.285c-0.04-0.015-0.077-0.03-0.114-0.044
		c0.017,0.018,0.035,0.034,0.05,0.053L21.644,56.285z"/>
	<path fill="#DF1F26" stroke="#DF1F26" stroke-miterlimit="10" d="M23.067,57.567c-0.105-0.037-0.195-0.075-0.274-0.088
		C22.934,57.565,23.004,57.574,23.067,57.567z"/>
	<path fill="#DF1F26" stroke="#DF1F26" stroke-miterlimit="10" d="M29.441,60.901c0.091,0.016,0.189,0.03,0.315,0.043
		C29.696,60.938,29.56,60.913,29.441,60.901z"/>
	<path fill="#DF1F26" stroke="#DF1F26" stroke-miterlimit="10" d="M13.329,18.06c-0.091-0.022-0.747,0.785-0.55,0.875
		c0.17-0.251,0.342-0.504,0.515-0.758c0,0,0.007-0.03,0.017-0.059C13.32,18.089,13.329,18.06,13.329,18.06z"/>
	<path fill="#DF1F26" stroke="#DF1F26" stroke-miterlimit="10" d="M49.203,59.129c-0.093,0.034-0.189,0.067-0.292,0.095
		c-0.104,0.025-0.214,0.047-0.329,0.067c0.156,0.004,0.391,0.016,0.45,0.078c0.27-0.12,0.413-0.309,0.668-0.469
		C49.553,58.983,49.388,59.06,49.203,59.129z"/>
	<path fill="#DF1F26" stroke="#DF1F26" stroke-miterlimit="10" d="M13.457,50.334c-0.019-0.022-0.039-0.045-0.061-0.07
		C13.416,50.291,13.437,50.314,13.457,50.334z"/>
	<path fill="#DF1F26" stroke="#DF1F26" stroke-miterlimit="10" d="M49.087,61.368c0.012-0.008,0.024-0.016,0.037-0.025
		C49.109,61.352,49.097,61.36,49.087,61.368z"/>
	<path fill="#DF1F26" stroke="#DF1F26" stroke-miterlimit="10" d="M22.006,8.923l-0.006,0.056
		C22.009,8.96,22.012,8.942,22.006,8.923z"/>
	<path fill="#DF1F26" stroke="#DF1F26" stroke-miterlimit="10" d="M16.453,13.214c0.018-0.018,0.036-0.037,0.053-0.054
		C16.489,13.177,16.471,13.195,16.453,13.214z"/>
	<path fill="#DF1F26" stroke="#DF1F26" stroke-miterlimit="10" d="M66.524,30.266c-0.053-0.191-0.123-0.376-0.181-0.563
		c-0.059-0.186-0.113-0.373-0.156-0.566c-0.046-0.192-0.071-0.392-0.104-0.6c-0.03-0.208-0.047-0.427-0.047-0.663
		c0.128,0.275,0.143-0.019,0.19-0.103c-0.21-0.565-0.39-1.25-0.624-1.565c0,0-0.013-0.057-0.032-0.143
		c-0.019-0.086-0.043-0.2-0.077-0.313c-0.063-0.226-0.125-0.452-0.125-0.452c0.066-0.013,0.202,0.045,0.355,0.225
		c0.159,0.178,0.311,0.485,0.416,0.96c-0.046-0.208-0.095-0.412-0.145-0.612c-0.05-0.201-0.119-0.394-0.179-0.586
		c-0.065-0.191-0.129-0.38-0.192-0.568c-0.033-0.093-0.065-0.186-0.098-0.278c-0.034-0.092-0.074-0.181-0.111-0.271
		c-0.15-0.358-0.303-0.708-0.456-1.053c-0.17-0.338-0.338-0.672-0.507-1.007c-0.7-1.325-1.447-2.598-2.225-4.097
		c-0.011-0.077,0.066,0.007,0.134,0.081c0.069,0.074,0.12,0.142,0.076,0.02c-0.269-0.294-0.659-0.763-0.795-0.842
		c0.072,0.014,0.183,0.061,0.317,0.258c-0.132-0.175-0.25-0.344-0.356-0.506c-0.113-0.158-0.217-0.31-0.311-0.457
		c-0.191-0.293-0.341-0.573-0.497-0.826c-0.159-0.251-0.307-0.486-0.47-0.706c-0.081-0.11-0.166-0.216-0.257-0.319
		c-0.096-0.099-0.198-0.193-0.31-0.284c0.043-0.077,0.205,0.069,0.351,0.216c0.14,0.152,0.261,0.307,0.241,0.23
		c-0.061-0.091-0.121-0.178-0.182-0.26c-0.064-0.08-0.128-0.156-0.193-0.23c-0.128-0.147-0.256-0.281-0.383-0.406
		c-0.128-0.125-0.255-0.242-0.382-0.353c-0.133-0.107-0.266-0.208-0.4-0.308c-0.269-0.199-0.533-0.402-0.818-0.618
		c-0.288-0.213-0.585-0.452-0.897-0.75c0.285,0.112,0.257,0.003,0.125-0.19c-0.137-0.187-0.386-0.447-0.52-0.654
		c-0.153-0.098-0.322-0.214-0.506-0.344c-0.191-0.123-0.395-0.259-0.611-0.405c-0.218-0.144-0.438-0.31-0.681-0.46
		c-0.241-0.153-0.492-0.313-0.747-0.475c-0.251-0.168-0.52-0.317-0.787-0.472c-0.269-0.152-0.531-0.314-0.802-0.454
		C52.02,8.225,51.5,7.941,50.998,7.744c0.387-0.127-0.143-0.412-0.772-0.713c-0.637-0.282-1.361-0.591-1.356-0.841
		c-0.452-0.18-1.184-0.384-1.299-0.214c0.286-0.004,0.837,0.387,0.72,0.447c-0.166-0.057-0.353-0.121-0.542-0.185
		c-0.19-0.063-0.387-0.11-0.566-0.153c-0.359-0.082-0.652-0.115-0.733-0.018c0,0-0.184-0.129-0.374-0.242
		c-0.19-0.117-0.381-0.234-0.381-0.234c-0.066,0.108-0.228,0.202-0.457,0.22c-0.185-0.05-0.37-0.098-0.557-0.145
		c-0.284-0.202-0.312-0.16-0.348-0.085c-0.199-0.047-0.398-0.091-0.598-0.133c0.252-0.073,0.463-0.133,0.58-0.224
		c-0.706-0.21-0.631-0.083-1.149-0.125c-0.07-0.086,0.074-0.162,0.309-0.215c0.237-0.058,0.559-0.062,0.847-0.05
		c0,0-0.226-0.088-0.452-0.176c-0.113-0.046-0.227-0.087-0.313-0.114c-0.086-0.029-0.144-0.048-0.144-0.048
		c-0.485,0.067-1.13,0.108-1.836,0.162c-0.176,0.01-0.356,0.016-0.537,0.018c-0.091,0-0.182,0-0.273-0.001
		c-0.091,0.002-0.184,0.004-0.276,0.006c-0.369,0.002-0.74-0.018-1.102-0.069c0.245-0.155,0.723-0.115,0.353-0.384
		c-0.16,0.007-0.333,0.019-0.517,0.054c-0.183,0.033-0.376,0.07-0.574,0.1c-0.396,0.061-0.813,0.082-1.231,0.02
		c0.115-0.022,0.043-0.052,0.156-0.075c-0.732,0.149-1.004,0.134-1.266,0.094c-0.26-0.034-0.508-0.104-1.175-0.069
		c0.019-0.027,0.02-0.061,0.057-0.093c0,0-0.05,0.015-0.125,0.037c-0.075,0.022-0.175,0.051-0.273,0.088
		c-0.197,0.069-0.394,0.139-0.394,0.139c-0.409,0.163-0.731,0.232-1.002,0.269c-0.27,0.039-0.49,0.024-0.695-0.014
		c-0.205-0.037-0.394-0.097-0.598-0.145c-0.204-0.048-0.42-0.071-0.683-0.056l0.215-0.091c-0.174-0.033-0.429-0.01-0.724,0.041
		c-0.147,0.027-0.305,0.056-0.465,0.1c-0.159,0.045-0.323,0.095-0.486,0.146c-0.325,0.104-0.649,0.204-0.925,0.298
		c-0.274,0.098-0.506,0.171-0.657,0.191c0.757-0.065,0.292,0.088,0.89,0.204c0.596-0.238,0.308-0.538,1.384-0.709
		c-0.034,0.15-0.368,0.352-0.718,0.543c-0.35,0.192-0.715,0.381-0.809,0.538c-0.552,0.205-1.088-0.095-1.203-0.232
		c-0.351,0.139-0.661,0.266-0.963,0.375c-0.151,0.054-0.298,0.107-0.445,0.16c-0.144,0.059-0.288,0.117-0.435,0.177
		c-0.292,0.121-0.595,0.245-0.925,0.398c-0.324,0.165-0.677,0.356-1.076,0.589c-0.246,0.241-0.393,0.573-0.672,0.88
		c-0.137,0.158-0.314,0.299-0.536,0.453c-0.224,0.15-0.507,0.29-0.882,0.414l0.008-0.075c-0.033,0.073-0.167,0.144-0.316,0.233
		c-0.186,0.112-0.402,0.238-0.487,0.385c0.602-0.057-0.407,0.537,0.275,0.398c-0.702,0.52-1.055,0.303-1.281,0.158
		c-0.061,0.18-0.185,0.327-0.353,0.463c-0.084,0.068-0.179,0.133-0.282,0.198c-0.1,0.069-0.207,0.139-0.32,0.211
		c-0.226,0.145-0.474,0.301-0.72,0.489c-0.246,0.188-0.474,0.426-0.681,0.702c0.029-0.145,0.305-0.487,0.507-0.753
		c0.21-0.257,0.338-0.448,0.036-0.319c0,0-0.064,0.095-0.159,0.238c-0.09,0.147-0.209,0.344-0.328,0.541
		c-0.117,0.195-0.235,0.39-0.323,0.537c-0.043,0.073-0.08,0.133-0.105,0.176c-0.024,0.044-0.037,0.069-0.037,0.069
		s0.032-0.037,0.085-0.087c0.052-0.051,0.122-0.118,0.192-0.186c0.14-0.135,0.28-0.271,0.28-0.271
		c-0.183,0.289-0.36,0.495-0.513,0.671c-0.155,0.174-0.304,0.3-0.451,0.405c-0.294,0.209-0.589,0.327-0.887,0.581
		c-0.177,0.034,0.063-0.336,0.32-0.603c-0.06,0.06-0.123,0.126-0.188,0.2c-0.081,0.1-0.166,0.209-0.25,0.324
		c-0.168,0.23-0.336,0.481-0.474,0.714c-0.084,0.194-0.299,0.601-0.523,1.021c-0.055,0.106-0.11,0.212-0.164,0.317
		c-0.052,0.106-0.097,0.214-0.14,0.315c-0.085,0.204-0.153,0.39-0.187,0.535c-0.05,0.055-0.099,0.111-0.15,0.167
		c-0.007-0.031-0.006-0.073,0.015-0.114c-0.059,0.095-0.101,0.177-0.139,0.254c-0.155,0.176-0.29,0.365-0.437,0.548l0.027-0.15
		c-0.039,0.086-0.074,0.17-0.108,0.253c-0.146,0.192-0.296,0.383-0.441,0.578l-0.1,0.374l0.101-0.152
		c0.117,0.109,0.124,0.373,0.039,0.71c-0.427,0.752-0.822,1.525-1.181,2.318c-0.093,0.143-0.179,0.299-0.257,0.463
		c-0.134,0.282-0.224,0.592-0.324,0.879c-0.204,0.573-0.343,1.09-0.634,1.262c0.07-0.844,0.273-1.427,0.489-2.012
		c0.11-0.292,0.251-0.574,0.386-0.892c0.069-0.159,0.14-0.325,0.212-0.504c0.079-0.175,0.163-0.361,0.247-0.563
		c0.349-0.323,0.264-0.049,0.112,0.318c-0.162,0.363-0.345,0.845-0.277,0.906c0,0,0.121-0.213,0.242-0.426
		c0.058-0.108,0.129-0.209,0.176-0.287c0.049-0.078,0.082-0.129,0.082-0.129c-0.117,0.015,0.073-0.422,0.217-0.834
		c0.15-0.407,0.273-0.783-0.046-0.67l-0.227,0.341l-0.209,0.351c-0.137,0.236-0.274,0.471-0.41,0.705
		c-0.07,0.116-0.133,0.236-0.193,0.356c-0.061,0.12-0.121,0.24-0.182,0.36c-0.119,0.24-0.237,0.479-0.355,0.716
		c-0.206,0.486-0.417,0.961-0.596,1.434c-0.084,0.239-0.166,0.474-0.247,0.706c-0.077,0.233-0.165,0.459-0.224,0.688
		c0,0-0.026-0.038-0.07-0.104c-0.044-0.066-0.109-0.161-0.18-0.274c-0.144-0.227-0.334-0.533-0.522-0.847
		c-0.188-0.314-0.373-0.634-0.51-0.878c-0.07-0.122-0.121-0.223-0.159-0.294c-0.037-0.071-0.059-0.112-0.059-0.112
		c-0.029-0.011-0.06-0.061-0.093-0.18c-0.045,0.118-0.083,0.226-0.114,0.325c-0.028,0.1-0.048,0.192-0.063,0.274
		c-0.03,0.165-0.038,0.297-0.03,0.402c0.016,0.21,0.097,0.313,0.194,0.373c0.195,0.118,0.457,0.062,0.419,0.302
		c-0.122,0.419-0.027,0.832-0.282,1.147l-0.06-0.231c-0.113,0.608-0.06,0.72-0.021,0.812c0.02,0.046,0.035,0.086,0.026,0.18
		c-0.005,0.095-0.034,0.244-0.104,0.506c-0.012,0.895,0.219-0.739,0.27-0.152c-0.322,1.113,0.402,0.813-0.168,2.504
		c-0.085-0.101-0.393,0.142-0.251-0.901l-0.401,0.977c0.046-0.613,0.054-0.732,0.064-0.855c0.006-0.061,0.015-0.123,0.034-0.247
		c0.01-0.062,0.022-0.14,0.037-0.24c0.014-0.101,0.035-0.225,0.068-0.378c-0.177-0.632-0.4-0.542-0.535-1.135
		c-0.033,0.492,0.23,0.454,0.056,1.149c-0.24,0.836-0.131-0.165-0.201-0.271c0.02,0.3,0.007,0.526-0.033,0.713
		c-0.041,0.186-0.108,0.333-0.175,0.477c-0.131,0.288-0.28,0.563-0.168,1.101c0.192-0.075,0.279-0.063,0.358-0.119
		c0.081-0.056,0.143-0.183,0.324-0.522c-0.001,0.091-0.008,0.184-0.02,0.277c-0.009,0.093-0.021,0.187-0.039,0.279
		c-0.035,0.183-0.086,0.357-0.148,0.506c-0.124,0.298-0.29,0.495-0.444,0.443l0.267,0.179c-0.094,0.16-0.135,0.736-0.213,0.767
		l0.122,0.255c0.129-0.257,0.229-0.487,0.291-0.768c0.065-0.28,0.113-0.609,0.115-1.067c0.145,0.388,0.545-0.427,0.463,0.733
		c-0.065,0.497-0.171,0.043-0.258,0.065c-0.013,0.657-0.04,1.147-0.106,1.546c-0.058,0.399-0.117,0.709-0.191,1.003
		c-0.035,0.147-0.071,0.29-0.103,0.439c-0.033,0.149-0.063,0.302-0.075,0.471c-0.03,0.336-0.032,0.73,0.025,1.25
		c-0.072-0.257-0.071-0.707-0.08-1.216C7.384,33,7.398,32.731,7.388,32.462c-0.008-0.269-0.029-0.537-0.074-0.79
		C7.181,31.97,7.193,32.3,7.233,32.625c0.022,0.163,0.043,0.325,0.07,0.482c0.026,0.158,0.045,0.311,0.04,0.458
		c-0.143-0.52-0.248-0.611-0.351,0.011l0.18,0.252c0.003,0.185,0.015,0.444,0.016,0.663c0.001,0.219,0.006,0.398-0.037,0.426
		c0.07,0.013,0.093-0.153,0.137-0.491c0.062,0.23,0.146,0.508,0.209,0.822c0.07,0.314,0.118,0.665,0.184,1.037
		c0.068,0.371,0.128,0.764,0.177,1.168c0.05,0.403,0.119,0.812,0.157,1.22c-0.191-0.022-0.348-0.591-0.462-1.003
		c-0.096-0.413-0.161-0.67-0.225-0.052c0.083,0.332,0.258,0.616,0.402,0.964c0.073,0.174,0.14,0.364,0.19,0.584
		c0.059,0.219,0.103,0.468,0.119,0.764c-0.319-0.438-0.094,0.571-0.225,0.59c0,0,0.05,0.093,0.126,0.233
		c0.082,0.137,0.191,0.319,0.299,0.501c0.217,0.36,0.434,0.719,0.434,0.719c0.197,0.757,0.456,1.63,0.845,2.249
		c-0.123-0.209-0.257-0.498-0.362-0.874c0.396,0.442,0.554,0.915,0.687,1.448c0.075,0.262,0.154,0.534,0.257,0.817
		c0.107,0.281,0.225,0.58,0.432,0.867c0,0-0.106-0.127-0.213-0.254c-0.101-0.131-0.201-0.261-0.201-0.261
		c0.045,0.125,0.09,0.246,0.141,0.362c0.053,0.114,0.108,0.224,0.164,0.331c0.112,0.214,0.229,0.413,0.35,0.603
		c0.233,0.384,0.516,0.707,0.781,1.036l-0.243,0.113c0.36-0.074,1.385,1.409,1.715,1.665c-0.814-0.989-1.04-1.502-1.243-2.004
		c-0.103-0.251-0.21-0.495-0.372-0.808c-0.154-0.318-0.373-0.698-0.714-1.218c0.377,0.333,0.657,0.633,0.935,0.942
		c0.136,0.156,0.286,0.306,0.445,0.462c0.159,0.156,0.331,0.317,0.527,0.486c0.162,0.337,0.195,0.49,0.139,0.559
		c0.293,0.194,0.542,0.147,0.934,0.575l-0.026,0.227c0.41,0.713,0.746,0.932,1.086,1.123c0.173,0.094,0.344,0.185,0.526,0.332
		c0.091,0.074,0.184,0.161,0.281,0.271c0.097,0.11,0.196,0.243,0.313,0.397c-0.029,0.224-0.342,0.051-0.719-0.282
		c-0.191-0.165-0.404-0.364-0.617-0.561c-0.21-0.2-0.407-0.409-0.592-0.574c0.089,0.395-0.171,0.097-0.438-0.182
		c-0.272-0.274-0.52-0.552-0.468-0.052l0.455,0.271c0.254,0.364,0.139,0.453-0.022,0.293c0.364,0.42,0.243,0.347,0.51,0.439
		c0.791,0.99,0.669,1.004,0.517,1.03c-0.075,0.012-0.156,0.026-0.128,0.167c0.014,0.07,0.055,0.173,0.139,0.322
		c0.089,0.145,0.222,0.336,0.415,0.587c-0.128-0.079-0.305-0.254-0.456-0.38c-0.154-0.124-0.272-0.211-0.307-0.093l-0.782-1.128
		l-0.23,0.139c0.528,0.695,1.012,1.197,1.5,1.531c0.239,0.171,0.468,0.308,0.69,0.42c0.224,0.111,0.448,0.188,0.661,0.255
		c-0.628-0.465-0.59-0.559-0.473-0.596c0.121-0.041,0.335-0.048,0.123-0.39c0.146,0.068,0.251,0.166,0.326,0.269
		c0.079,0.1,0.129,0.205,0.159,0.292c0.134,0.028,0.695,0.544,0.73,0.369c-0.115,0.361,0.434,1.108,0.898,1.765
		c0.48,0.635,0.87,1.19,0.368,1.189c0.148,0.2,0.434,0.436,0.793,0.709c0.18,0.136,0.378,0.282,0.592,0.43
		c0.219,0.141,0.453,0.288,0.694,0.437c0.961,0.607,2.103,1.175,3.023,1.669l-0.583-0.124c0.204,0.197,0.387,0.357,0.555,0.48
		c0.172,0.117,0.326,0.203,0.467,0.265c0.282,0.124,0.509,0.151,0.718,0.144c0.208-0.005,0.404-0.053,0.622-0.075
		c0.218-0.021,0.458-0.016,0.761,0.075c-0.551-0.123-0.357,0.039,0.022,0.28c0.095,0.059,0.2,0.127,0.31,0.189
		c0.111,0.061,0.224,0.124,0.332,0.184c0.214,0.121,0.402,0.237,0.491,0.322c0.502,0.095,0.983,0.095,1.491,0.152
		c0.506,0.066,1.059,0.125,1.723,0.331c0.21,0.332,0.143,0.754,1.023,0.986c0,0,0.162-0.023,0.324-0.045
		c0.081-0.011,0.161-0.023,0.221-0.031c0.061-0.011,0.101-0.018,0.101-0.018c0.44,0.092,0.965,0.143,1.444,0.201
		c0.483,0.037,0.921,0.085,1.198,0.205l-0.124,0.005c0.493,0.139,0.763,0.081,0.808-0.001c0.046-0.089-0.13-0.204-0.512-0.273
		c0,0,0.06-0.002,0.15-0.006c0.09-0.008,0.21-0.018,0.33-0.028c0.239-0.021,0.478-0.043,0.478-0.043l0.025,0.086
		c0.158-0.009,0.314-0.022,0.471-0.038c0.078-0.009,0.156-0.017,0.235-0.026c0.079-0.013,0.157-0.026,0.237-0.039
		c0.315-0.056,0.639-0.113,0.986-0.175c0.344-0.05,0.709-0.134,1.108-0.192c0.199-0.031,0.408-0.059,0.627-0.082
		c0.219-0.024,0.447-0.063,0.689-0.087c-0.25,0.151,0.127,0.246,0.351,0.33c0.224,0.084,0.293,0.157-0.596,0.264
		c0.503-0.17-0.299-0.233-0.405-0.347c-0.638-0.044-1.21,0.26-1.497,0.292c0.211,0.149,0.027,0.509-0.325,0.701
		c0.327-0.092,0.797-0.167,1.325-0.213c0.132-0.011,0.267-0.022,0.405-0.033c0.069-0.005,0.138-0.01,0.208-0.014
		c0.069-0.008,0.139-0.015,0.209-0.023c0.28-0.031,0.564-0.062,0.84-0.092c0.552-0.052,1.067-0.166,1.457-0.279
		c0.195-0.059,0.358-0.125,0.478-0.198c0.12-0.076,0.196-0.164,0.218-0.257c0.39-0.059,0.807-0.136,1.241-0.223
		c0.429-0.109,0.876-0.223,1.329-0.338c0.451-0.125,0.903-0.27,1.356-0.393c0.228-0.058,0.448-0.138,0.67-0.201
		c0.222-0.066,0.442-0.128,0.661-0.185c-0.081-0.006-0.239-0.018-0.216-0.079c0,0,0.098-0.013,0.245-0.032
		c0.148-0.017,0.342-0.05,0.536-0.087c0.39-0.071,0.78-0.142,0.78-0.142l-0.312,0.188c0,0,0.261-0.043,0.522-0.087
		c0.131-0.021,0.262-0.045,0.358-0.067c0.097-0.021,0.162-0.035,0.162-0.035c0.143,0.058-0.178,0.336-0.573,0.514
		c-0.2,0.118-0.423,0.122-0.286,0.022c-0.873,0.577,0.942-0.259,0.362,0.236c-0.275,0.063-0.589,0.25-0.779,0.312
		c0.318-0.076,0.582-0.173,0.812-0.275c0.23-0.101,0.427-0.206,0.605-0.313c0.36-0.206,0.67-0.361,1.12-0.348
		c0.23-0.239,0.59-0.564,1.036-0.866c0.225-0.147,0.459-0.311,0.713-0.453c0.253-0.144,0.521-0.272,0.801-0.375
		c-0.3,0.383,1.053-0.711,0.728-0.129c0.147-0.193,0.477-0.377,0.764-0.563c0.286-0.19,0.54-0.365,0.553-0.5
		c-0.095,0.151-0.512,0.456-0.851,0.586c0.361-0.334,0.296-0.529,0.796-0.837c0.081-0.018,0.075,0.047,0.075,0.047
		c0.522-0.582-0.173-0.675,0.862-1.485c0.333-0.275,0.561-0.496,0.739-0.632c0.176-0.139,0.289-0.209,0.356-0.227
		c0.134-0.036,0.082,0.137-0.038,0.379c-0.121,0.241-0.306,0.556-0.44,0.791c-0.138,0.23-0.215,0.39-0.094,0.338
		c0.002-0.05,0.075-0.154,0.193-0.287c0.115-0.137,0.271-0.307,0.448-0.48c0.176-0.173,0.371-0.351,0.562-0.508
		c0.188-0.159,0.363-0.306,0.517-0.398l-0.073,0.169c0.22-0.297,0.518-0.746,0.892-0.912c-0.029-0.339,0.081-0.809,0.124-1.105
		c0,0,0.266-0.284,0.508-0.589c0.247-0.3,0.493-0.601,0.493-0.601l-0.103,0.336c0.094-0.154,0.19-0.291,0.288-0.42
		c0.096-0.13,0.189-0.256,0.282-0.383c0.234,0.014-0.081,0.352-0.34,0.758c0.151-0.04,0.278-0.121,0.376-0.243
		c0.094-0.126,0.162-0.293,0.201-0.499l-0.13,0.147c0.167-0.389,0.83-1.709,0.066-0.843c0.196-0.393,0.393-0.597,0.589-0.763
		c0.195-0.166,0.381-0.301,0.511-0.57c0.172,0.042-0.107,0.517,0.17,0.343c0.187-0.224,0.326-0.422,0.45-0.615
		c0.124-0.193,0.229-0.382,0.324-0.604c-0.295,0.36-0.06-0.192-0.534,0.368c0.073-0.286,0.442-0.919,0.35-0.94
		c-0.087,0.22-0.119,0.394-0.428,0.684c0.172-0.35,0.369-0.692,0.564-1.038c0.101-0.171,0.208-0.34,0.321-0.504
		c0.113-0.165,0.237-0.324,0.353-0.488c0.021,0.044,0.018,0.132,0.008,0.23c0.055-0.265,0.145-0.546,0.248-0.832
		c0.102-0.286,0.224-0.573,0.316-0.862c0.192-0.574,0.373-1.103,0.334-1.488l-0.173,0.255c-0.009,0.263-0.211,0.722-0.369,0.867
		c0.233-0.729-0.496,0.363-0.293-0.422c0.168-0.524,0.397-0.986,0.587-1.4c0.198-0.411,0.316-0.788,0.238-1.129
		c-0.095,0.241-0.193,0.505-0.318,0.759c-0.123,0.255-0.246,0.512-0.361,0.751c-0.11,0.24-0.212,0.463-0.298,0.65
		c-0.081,0.189-0.132,0.347-0.139,0.459l0.288-0.601c0,0-0.056,0.393-0.112,0.786c-0.029,0.199-0.058,0.397-0.081,0.546
		c-0.029,0.147-0.048,0.245-0.048,0.245c-0.088-0.01-0.219,0.304-0.358,0.603c-0.069,0.15-0.14,0.296-0.208,0.395
		c-0.072,0.097-0.14,0.147-0.194,0.109c0.214-0.485,0.426-0.919,0.592-1.297c-0.15,0.036-0.685,1.233-1.011,1.686l0.432-0.558
		c-0.22,0.591-0.526,1.241-0.897,1.848c-0.346,0.622-0.749,1.202-1.035,1.751c0.194-0.454-0.019-0.229-0.25,0.006
		c-0.24,0.23-0.494,0.474-0.346,0.107c0.084-0.323,0.543-0.605,0.412-0.524c-0.069-0.109-0.183,0.035-0.321,0.215
		c-0.143,0.175-0.306,0.388-0.451,0.429c0.022,0.097-0.141,0.401-0.237,0.624c-0.099,0.22-0.133,0.36,0.171,0.136
		c-0.166,0.124-0.354,0.384-0.555,0.658c-0.202,0.274-0.421,0.559-0.677,0.695c0.315,0.069-0.572,0.871-0.638,1.094
		c-0.185,0.155-0.374,0.261-0.537,0.327c0.154-0.209,0.326-0.438,0.499-0.688c0.164-0.256,0.338-0.527,0.515-0.803v0.002
		c0.104-0.08,0.242-0.204,0.331-0.305c0.087-0.103,0.132-0.177,0.061-0.144l-0.071-0.078c0.159-0.282,0.319-0.565,0.474-0.838
		c0.038-0.068,0.076-0.136,0.113-0.202c0.035-0.069,0.069-0.137,0.103-0.204c0.067-0.134,0.133-0.265,0.196-0.391
		c0.123-0.247,0.24-0.473,0.339-0.678c0.069-0.092,0.136-0.186,0.204-0.28l-0.01,0.056c0.007-0.025,0.016-0.049,0.023-0.074
		c3.371-4.645,5.36-10.358,5.36-16.537c0-0.695-0.026-1.384-0.076-2.066l0.171-0.661c0,0,0.054,0.167,0.135,0.417
		c0.079,0.251,0.194,0.588,0.294,0.929c0.182,0.691,0.365,1.381,0.365,1.381c0.028-0.577-0.009-1.077-0.082-1.526
		C66.759,31.045,66.638,30.647,66.524,30.266z M13.548,47.299c-0.02-0.021-0.039-0.052-0.057-0.096
		C13.51,47.235,13.529,47.267,13.548,47.299z M22.222,56.477c0.218,0.146,0.439,0.289,0.662,0.428
		c-0.156-0.058-0.356-0.147-0.54-0.224C22.211,56.562,22.198,56.508,22.222,56.477z M10.857,24.895
		c-0.005,0.016-0.01,0.032-0.015,0.049c-0.051,0.15-0.101,0.297-0.15,0.441l-0.172-0.239C10.639,24.954,10.742,24.921,10.857,24.895
		z M9.752,35.221c0.018,0.233,0.039,0.465,0.062,0.696c-0.201-0.409-0.369-0.8-0.464-1.026c-0.064-0.417-0.071-0.852-0.077-1.245
		c-0.002-0.197,0.001-0.384,0.007-0.553c0.008-0.17,0.032-0.323,0.053-0.452L9.372,32.9c-0.001,0.494,0.024,0.9,0.043,1.228
		c0.016,0.328,0.059,0.575,0.099,0.754C9.589,35.217,9.668,35.306,9.752,35.221z M9.968,38.518
		c-0.145-0.094-0.251,0.106-0.319-0.673c0.081,0.046,0.116-0.012,0.129-0.118C9.841,37.988,9.904,38.253,9.968,38.518z
		 M8.804,30.014c-0.056-0.278,0.105-1.554,0.291-1.238c-0.111,0.435,0.018,0.655,0.109,0.858c0.093,0.205,0.135,0.389-0.103,0.777
		c0.186,0.146,0.277-0.059,0.346-0.368c0.028,0.109,0.07,0.177,0.114,0.192c-0.034,0.316-0.065,0.614-0.095,0.893
		c-0.045,0.249-0.094,0.472-0.17,0.399C8.984,31.447,9.052,30.368,8.804,30.014z M13.367,48.028
		c-0.304-0.343-0.682-0.811-0.994-0.98c-0.11-0.094-0.207-0.24-0.292-0.404c-0.085-0.163-0.159-0.341-0.213-0.503
		c-0.082-0.247-0.119-0.453-0.089-0.511c-0.377,0.001-0.899-1.524-1.284-2.05c-0.074-0.184-0.128-0.341-0.167-0.475
		c-0.033-0.137-0.051-0.252-0.061-0.351c-0.019-0.199-0.002-0.337,0.013-0.468c0.015-0.131,0.028-0.254,0-0.424
		c-0.032-0.169-0.091-0.389-0.223-0.715l-0.072,0.549c-0.209-0.588-0.369-1.007-0.495-1.453c-0.056-0.224-0.108-0.454-0.157-0.714
		c-0.045-0.26-0.108-0.547-0.135-0.893c0.123-0.107,0.133,0.051,0.141,0.271c0.016,0.218,0.028,0.5,0.132,0.638l0.131-0.69
		c0.075,0.289,0.432,0.798,0.166,0.837c0.133-0.019,0.444,0.38,0.146-0.431l0.341,0.58c0.024-0.042,0.039-0.095,0.045-0.155
		c0.058,0.18,0.102,0.369,0.172,0.549c-0.021,0.255,0.107,0.671,0.009,1.093c-0.071,0.051-0.209-0.331-0.31-0.544
		c0.024,0.298,0.083,0.571,0.155,0.807c0.084,0.232,0.178,0.429,0.261,0.579c-0.24-0.89,0.042-0.463,0.196-0.721
		c0.277,0.496,0.496,1.378,0.691,1.662c0.095,0.374,0.142,0.734,0.118,0.952c-0.018,0.215-0.113,0.29-0.308,0.09
		c0.299,0.415,0.418,0.939,0.859,1.312c-0.647-0.779,0.502-0.26-0.33-1.241c0.036-0.089,0.08-0.116,0.129-0.096
		c0.173,0.403,0.355,0.801,0.546,1.194c0.046,0.144,0.088,0.279,0.116,0.393c-0.205-0.27-0.19,0.035-0.318,0.009
		c0.375,0.545,0.51,0.473,0.489,0.171c0.225,0.437,0.461,0.867,0.708,1.29c0.011,0.053,0.034,0.166,0.057,0.28
		c0.016,0.078,0.032,0.157,0.044,0.216c0.011,0.059,0.022,0.097,0.022,0.097s-0.036-0.046-0.084-0.118
		c-0.049-0.072-0.115-0.167-0.181-0.262c-0.132-0.191-0.264-0.382-0.264-0.382c-0.008,0.225,0.113,0.454,0.264,0.677
		c0.149,0.225,0.352,0.429,0.476,0.633C13.89,48.597,13.679,48.367,13.367,48.028z M30.604,60.902
		c-0.279,0.015-0.358,0.444-1.368,0.031c-0.002-0.041,0.095-0.042,0.204-0.032c-0.245-0.039-0.376-0.099-0.508-0.171
		c-0.132-0.072-0.265-0.159-0.508-0.27c-0.061-0.319,0.679,0.025,1.07-0.062c-0.341-0.037-0.732-0.064-1.078-0.202l0.115-0.07
		c0,0-0.27-0.074-0.54-0.149c-0.266-0.087-0.532-0.175-0.532-0.175c-0.507,0.03,0.781,0.341,0.79,0.498c0,0-0.186-0.018-0.372-0.036
		c-0.184-0.027-0.368-0.053-0.368-0.053c-0.198-0.063-0.478-0.156-0.795-0.272c-0.16-0.055-0.324-0.126-0.492-0.202
		c-0.168-0.075-0.339-0.155-0.509-0.238c-0.169-0.083-0.337-0.168-0.495-0.257c-0.156-0.095-0.303-0.191-0.438-0.287
		c-0.269-0.191-0.485-0.38-0.604-0.552c-0.763-0.592-0.555-0.107-0.851-0.076c-0.31-0.048-0.552-0.195-0.77-0.376
		c-0.218-0.18-0.424-0.372-0.692-0.486c-0.051,0.096-0.218,0.048-0.394,0.003c-0.176-0.046-0.353-0.101-0.44,0.004l-0.741-0.597
		c-0.67,0.007,0.887,0.726,1.001,1.003c0.117,0.286-0.048,0.215-0.223,0.116c-0.172-0.103-0.349-0.24-0.273-0.057
		c0.155,0.102,0.286,0.163,0.396,0.205c0.11,0.043,0.199,0.066,0.279,0.083c0.159,0.033,0.279,0.037,0.445,0.108
		c0.185,0.102,0.313,0.203,0.384,0.293c0.073,0.087,0.09,0.161,0.049,0.215c-0.924-0.759-0.698-0.103-1.487-0.679l0.02-0.086
		c-0.085,0.104-0.389-0.08-0.734-0.315c-0.172-0.118-0.357-0.245-0.525-0.361c-0.165-0.121-0.32-0.223-0.443-0.279
		c-0.326-0.451-0.091-0.395,0.223-0.243c0.157,0.076,0.334,0.179,0.475,0.254c0.144,0.071,0.249,0.119,0.254,0.098
		c0,0-0.276-0.166-0.539-0.353c-0.266-0.182-0.532-0.365-0.532-0.365c0.552,0.203,0.215-0.275,0.903,0.049
		c-0.33-0.204-0.476-0.37-0.624-0.524c-0.074-0.077-0.148-0.151-0.247-0.227c-0.097-0.079-0.215-0.161-0.383-0.249
		c0.894,0.233-0.587-0.903-0.476-1.154c0.356,0.257,0.777,0.713,1.08,1.108c0.262,0.309,0.446,0.571,0.445,0.623
		c0.064,0.017,0.237,0.146,0.432,0.312c0.238,0.2,0.52,0.434,0.655,0.598l0.696,0.044c-0.539-0.4-1.379-0.803-0.988-0.903
		l-0.816-0.437c0.522,0.1,0.766,0.142,0.981,0.205c0.22,0.056,0.411,0.132,0.812,0.286c-0.292-0.33-0.612-0.575-0.922-0.809
		c-0.313-0.23-0.647-0.407-0.958-0.601c-0.311-0.195-0.617-0.384-0.899-0.6c-0.277-0.219-0.516-0.479-0.713-0.786l0.187,0.124
		c-1.046-0.93-1.542-1.66-1.786-2.222c1.594,1.861,3.427,3.512,5.452,4.905l-0.247,0.032c0.036,0.014,0.061,0.023,0.1,0.038
		c0.367,0.228,0.56,0.344,0.644,0.439c0.087,0.091,0.076,0.144,0.068,0.196c-0.009,0.052-0.015,0.104,0.081,0.193
		c0.048,0.045,0.121,0.098,0.233,0.167c0.112,0.067,0.259,0.153,0.466,0.242c-0.076-0.008-0.121,0.004-0.169,0.009
		c0.346,0.132,0.791,0.393,1.187,0.595c0.405,0.186,0.757,0.318,0.892,0.223c-0.111-0.052-0.429-0.262-0.684-0.464
		c-0.094-0.078-0.179-0.156-0.24-0.225c0.661,0.366,1.337,0.707,2.029,1.02c0.112,0.1,0.225,0.193,0.368,0.274c0,0,0,0-0.001,0.001
		c0.001-0.001,0.001-0.001,0.002-0.001c0.074,0.041,0.155,0.082,0.25,0.113c0.096,0.03,0.205,0.055,0.332,0.074
		c0.056,0.003,0.096,0.002,0.129-0.001c0.826,0.332,1.671,0.627,2.533,0.881c-0.069,0.12,0.37,0.311,0.709,0.482
		c0.174,0.092,0.324,0.161,0.358,0.225C30.967,60.826,30.887,60.879,30.604,60.902z M34.205,61.012c-0.437-0.015-0.777,0-0.769,0.19
		c-1.053-0.174-0.309-0.13-1.03-0.39c-0.031-0.053-0.002-0.092,0.061-0.121c0.754,0.146,1.518,0.262,2.292,0.346
		C34.569,61.03,34.379,61.019,34.205,61.012z M36.668,61.424c-0.183-0.01-0.533-0.019-0.846-0.054
		c-0.313-0.034-0.589-0.093-0.621-0.219c0.474,0.033,0.625,0.031,0.592-0.019c0.511,0.037,1.027,0.06,1.545,0.069
		c0.023,0.03,0.068,0.061,0.136,0.09C37.245,61.341,36.883,61.368,36.668,61.424z M50.776,59.117
		c-0.032,0.078-0.094,0.168-0.201,0.282c-0.11,0.11-0.268,0.239-0.491,0.403c-0.883,0.335-0.029-0.19-0.52-0.118
		c-0.123,0.161-0.245,0.249-0.368,0.294c-0.124,0.043-0.246,0.049-0.369,0.057c-0.246,0.016-0.488,0.038-0.762,0.381
		c-0.845,0.329-0.655,0.016-0.965-0.007c0.836-0.309-0.498-0.172,0.534-0.59c-0.916,0.108-0.513,0.531-1.28,0.65l-0.21-0.285
		c-0.173,0.024-0.394,0.057-0.642,0.099c-0.123,0.023-0.254,0.047-0.389,0.071c-0.067,0.013-0.135,0.027-0.204,0.041
		c-0.069,0.012-0.139,0.023-0.21,0.035c-0.565,0.095-1.143,0.256-1.585,0.428c0.817,0.068-0.412,0.29-0.252,0.462
		c0.043-0.154,0.34-0.228,0.629-0.248c0.289-0.021,0.568-0.008,0.577,0.061c-0.541,0.199-1.876,0.476-2.382,0.494
		c0.118,0.003,0.296,0.007,0.476,0.011c0.154,0.006,0.306-0.006,0.422-0.006c0.115-0.003,0.192-0.005,0.192-0.005
		c-0.098,0.059-0.263,0.139-0.456,0.227c-0.195,0.08-0.419,0.163-0.632,0.243c-0.427,0.159-0.814,0.299-0.832,0.325
		c-0.496-0.099-1.213-0.007-1.471-0.166l0.867-0.307l0.336,0.183c0,0,0.121-0.076,0.242-0.151c0.119-0.082,0.238-0.164,0.238-0.164
		c-0.072-0.003-0.155-0.006-0.243-0.009c-0.09-0.008-0.185-0.016-0.285-0.025c-0.199-0.019-0.413-0.041-0.617-0.069
		c-0.204-0.028-0.397-0.06-0.556-0.099c-0.159-0.043-0.284-0.097-0.35-0.153c0.331,0.006,0.702-0.042,1.112-0.092
		c0.205-0.027,0.419-0.057,0.642-0.095c0.221-0.047,0.451-0.1,0.688-0.159c0.237-0.059,0.482-0.121,0.732-0.195
		c0.085-0.028,0.172-0.058,0.258-0.088c2.823-0.463,5.504-1.344,7.978-2.579c-0.02,0.026-0.04,0.05-0.061,0.077
		c-0.078,0.101-0.167,0.207-0.275,0.297c-0.108,0.091-0.231,0.177-0.37,0.257c0.155-0.099,0.361-0.169,0.655-0.236
		c0,0-0.018,0.019-0.051,0.052c-0.033,0.033-0.078,0.082-0.136,0.135c-0.116,0.108-0.27,0.253-0.424,0.397
		c-0.156,0.146-0.313,0.291-0.43,0.4c-0.059,0.055-0.109,0.101-0.143,0.133c-0.034,0.033-0.055,0.049-0.055,0.049
		c0.389-0.13,0.561-0.326,0.751-0.527c0.19-0.202,0.401-0.402,0.857-0.594C50.786,58.852,50.84,58.961,50.776,59.117z"/>
	<path fill="#DF1F26" stroke="#DF1F26" stroke-miterlimit="10" d="M41.687,61.628c-0.084-0.002-0.138-0.003-0.138-0.003
		C41.582,61.63,41.631,61.63,41.687,61.628z"/>
	<path fill="#DF1F26" stroke="#DF1F26" stroke-miterlimit="10" d="M19.731,56.138c0.018,0.01,0.026,0.008,0.027-0.003
		C19.744,56.131,19.734,56.131,19.731,56.138z"/>
	<path fill="#DF1F26" stroke="#DF1F26" stroke-miterlimit="10" d="M11.829,45.622c-0.024-0.014-0.04-0.01-0.049,0.008
		C11.797,45.63,11.813,45.628,11.829,45.622z"/>
	<path fill="#DF1F26" stroke="#DF1F26" stroke-miterlimit="10" d="M65.729,41.14c-0.107,0.243-0.209,0.529-0.312,0.8
		c-0.194,0.544-0.295,1.06-0.115,1.147c-0.011-0.462-0.012-0.747,0.217-1.377c0.582-0.081-0.209,1.088,0.148,1.547
		c0.23-0.585,0.261-1.009,0.274-1.403c0.003-0.398-0.028-0.771,0.091-1.265C65.944,40.696,65.836,40.897,65.729,41.14z"/>
	<path fill="#DF1F26" stroke="#DF1F26" stroke-miterlimit="10" d="M65.791,43.307c-0.014,0.065-0.032,0.152-0.05,0.239
		c-0.036,0.175-0.073,0.349-0.073,0.349l0.054-0.054c0,0,0.037-0.174,0.074-0.349c0.018-0.087,0.036-0.174,0.049-0.239
		c0.011-0.066,0.018-0.11,0.018-0.11l-0.051,0.055C65.811,43.197,65.806,43.242,65.791,43.307z"/>
	<polygon fill="#DF1F26" stroke="#DF1F26" stroke-miterlimit="10" points="47.62,61.603 47.25,61.899 47.571,61.728 	"/>
	<polygon fill="#DF1F26" stroke="#DF1F26" stroke-miterlimit="10" points="47.942,62.267 48.21,62.026 47.284,62.419 	"/>
	<path fill="#DF1F26" stroke="#DF1F26" stroke-miterlimit="10" d="M41.303,62.018l0.551-0.17
		C41.744,61.881,40.96,61.852,41.303,62.018z"/>
	<path fill="#DF1F26" stroke="#DF1F26" stroke-miterlimit="10" d="M36.835,63.057c0.017,0.02,0.041,0.041,0.064,0.062
		C36.895,63.102,36.875,63.082,36.835,63.057z"/>
	<path fill="#DF1F26" stroke="#DF1F26" stroke-miterlimit="10" d="M36.899,63.119c0.018,0.066-0.206,0.073-0.398,0.078
		c-0.12,0.003-0.226,0.006-0.251,0.02c-0.025,0.015,0.031,0.051,0.238,0.107C37.105,63.309,37.008,63.216,36.899,63.119z"/>
	<path fill="#DF1F26" stroke="#DF1F26" stroke-miterlimit="10" d="M28.916,60.023c-0.086-0.029-0.179-0.051-0.275-0.056
		C28.749,59.993,28.84,60.011,28.916,60.023z"/>
	<path fill="#DF1F26" stroke="#DF1F26" stroke-miterlimit="10" d="M29.661,60.284c-0.322-0.198-0.455-0.214-0.744-0.26
		C29.194,60.119,29.445,60.3,29.661,60.284z"/>
	<path fill="#DF1F26" stroke="#DF1F26" stroke-miterlimit="10" d="M25.772,58.833l0.236,0.125c-0.298-0.006-0.173,0.032,0.089,0.046
		c0.261,0.109,0.277,0.034,0.328,0c0.063-0.005,0.126-0.009,0.195-0.014c-0.091-0.008-0.174-0.012-0.244-0.016
		C25.979,58.794,25.731,58.695,25.772,58.833z"/>
	<path fill="#DF1F26" stroke="#DF1F26" stroke-miterlimit="10" d="M28.486,62.223c-0.178,0.014-0.357,0.029-0.357,0.029l0.242,0.04
		c0,0,0.117-0.025,0.235-0.05c0.058-0.012,0.117-0.025,0.161-0.034c0.044-0.011,0.074-0.018,0.074-0.018s-0.045,0.007-0.111,0.012
		C28.664,62.208,28.575,62.216,28.486,62.223z"/>
	<path fill="#DF1F26" stroke="#DF1F26" stroke-miterlimit="10" d="M16.978,54.553c-0.139-0.174-0.248-0.297-0.326-0.387
		c-0.078-0.092-0.131-0.145-0.169-0.171c-0.075-0.053-0.086,0.001-0.091,0.071c-0.01,0.139,0.005,0.338-0.438-0.152
		c0.472,0.615,0.563,1.07,0.442,1.08c0.372,0.202,0.23-0.118,0.142-0.38C16.451,54.35,16.416,54.145,16.978,54.553z"/>
	<path fill="#DF1F26" stroke="#DF1F26" stroke-miterlimit="10" d="M15.954,53.913c-0.069-0.089-0.148-0.182-0.238-0.278
		C15.808,53.748,15.886,53.837,15.954,53.913z"/>
	<path fill="#DF1F26" stroke="#DF1F26" stroke-miterlimit="10" d="M11.284,44.151c-0.049-0.074-0.101-0.144-0.163-0.211
		C11.182,44.035,11.233,44.096,11.284,44.151z"/>
	<path fill="#DF1F26" stroke="#DF1F26" stroke-miterlimit="10" d="M13.119,50.783c0,0,0.243,0.197,0.486,0.393
		c0.251,0.186,0.503,0.372,0.503,0.372c-0.165-0.125-0.375-0.313-0.579-0.537c-0.201-0.227-0.417-0.472-0.614-0.695
		c-0.099-0.112-0.196-0.216-0.284-0.31c-0.085-0.096-0.164-0.18-0.234-0.245c-0.141-0.13-0.249-0.184-0.301-0.113
		c0.076,0.149,0.164,0.3,0.259,0.445c0.094,0.146,0.207,0.278,0.312,0.403c0.213,0.246,0.423,0.442,0.576,0.533L13.119,50.783z"/>
	<path fill="#DF1F26" stroke="#DF1F26" stroke-miterlimit="10" d="M12.163,45.849c0.149,0.339,0.29,0.6,0.498,0.87
		C12.649,46.566,12.285,45.724,12.163,45.849z"/>
	<path fill="#DF1F26" stroke="#DF1F26" stroke-miterlimit="10" d="M7.239,35.999c-0.077-0.178-0.154-0.356-0.154-0.356
		c0.001,0.599,0.37,1.023,0.409,0.862c0,0-0.01-0.071-0.024-0.176c-0.016-0.106-0.033-0.248-0.044-0.39
		c-0.025-0.284-0.05-0.568-0.05-0.568c-0.119,0.155-0.111,0.234-0.075,0.358c0.018,0.062,0.043,0.134,0.062,0.233
		c0.018,0.099,0.033,0.224,0.039,0.39c0,0-0.021-0.044-0.054-0.11C7.316,36.176,7.278,36.087,7.239,35.999z"/>
	<path fill="#DF1F26" stroke="#DF1F26" stroke-miterlimit="10" d="M18.829,10.199c-0.05,0.054-0.082,0.09-0.082,0.09
		s0.057-0.052,0.113-0.104c0.057-0.052,0.114-0.104,0.114-0.104l0.317-0.35c0,0-0.138,0.137-0.277,0.274
		C18.943,10.072,18.878,10.146,18.829,10.199z"/>
	<path fill="#DF1F26" stroke="#DF1F26" stroke-miterlimit="10" d="M21.816,8.569c0.332-0.216,0.434-0.265,0.536-0.322
		c0.051-0.028,0.102-0.059,0.183-0.113c0.08-0.055,0.189-0.133,0.363-0.247c-0.199,0.019-0.426,0.154-0.625,0.301
		C22.073,8.333,21.901,8.49,21.816,8.569z"/>
	<polygon fill="#DF1F26" stroke="#DF1F26" stroke-miterlimit="10" points="21.717,6.501 21.163,6.997 21.798,6.487 	"/>
	<polygon fill="#DF1F26" stroke="#DF1F26" stroke-miterlimit="10" points="26.492,4.602 27.123,4.227 27.04,4.224 26.409,4.601 	"/>
	<path fill="#DF1F26" stroke="#DF1F26" stroke-miterlimit="10" d="M30.896,3.297c-0.177,0.064-0.315,0.132-0.397,0.21
		C30.663,3.431,30.786,3.363,30.896,3.297z"/>
	<path fill="#DF1F26" stroke="#DF1F26" stroke-miterlimit="10" d="M32.243,2.452c-0.796,0.313-0.84,0.546-1.347,0.844
		c0.237-0.084,0.545-0.167,0.895-0.234c0.352-0.056,0.743-0.118,1.142-0.181c0.1-0.016,0.2-0.033,0.3-0.049
		c0.1-0.013,0.201-0.027,0.301-0.04c0.2-0.029,0.398-0.061,0.59-0.098c0.192-0.037,0.378-0.079,0.555-0.128
		c0.177-0.045,0.345-0.09,0.5-0.147c0.675-0.387,0.219-0.811,0.18-1.292c-0.03-0.026-0.17-0.04-0.366-0.041
		c-0.195-0.001-0.446,0.008-0.692,0.05c-0.493,0.074-0.973,0.203-0.985,0.366c0.899,0.097-1.158,0.43,0.462,0.316
		c0.083,0.088-0.055,0.219-0.307,0.328c-0.125,0.056-0.281,0.098-0.45,0.143c-0.169,0.043-0.354,0.073-0.544,0.082
		c0.027-0.193,0.706-0.246,0.217-0.35C32.233,2.319,32.022,2.209,32.243,2.452z"/>
	<path fill="#DF1F26" stroke="#DF1F26" stroke-miterlimit="10" d="M31.382,1.425c0.14-0.055,0.31-0.136,0.474-0.17
		c-0.413,0.05-0.535,0.09-0.774,0.189C31.133,1.519,31.243,1.485,31.382,1.425z"/>
	<path fill="#DF1F26" stroke="#DF1F26" stroke-miterlimit="10" d="M40.954,4.5c0.076-0.06,0.751-0.06,0.623-0.196
		c0,0-0.255-0.01-0.511-0.021c-0.254-0.015-0.51-0.008-0.51-0.008C40.794,4.302,40.869,4.398,40.954,4.5z"/>
	<path fill="#DF1F26" stroke="#DF1F26" stroke-miterlimit="10" d="M40.109,4.278l0.447-0.003C40.446,4.261,40.308,4.26,40.109,4.278
		z"/>
	<path fill="#DF1F26" stroke="#DF1F26" stroke-miterlimit="10" d="M40.997,4.549C40.983,4.533,40.97,4.517,40.954,4.5
		C40.938,4.513,40.94,4.529,40.997,4.549z"/>
	<path fill="#DF1F26" stroke="#DF1F26" stroke-miterlimit="10" d="M66.659,29.021c0.027,0.008,0.052,0.035,0.077,0.072
		C66.715,29.055,66.69,29.03,66.659,29.021z"/>
	<path fill="#DF1F26" stroke="#DF1F26" stroke-miterlimit="10" d="M67.088,31.038c-0.029-0.267-0.055-0.683-0.107-1.067
		c-0.065-0.383-0.145-0.736-0.245-0.878c0.072,0.13,0.093,0.412,0.121,0.697c0.034,0.284,0.044,0.574,0.142,0.72l-0.053-0.034
		L67.088,31.038z"/>
</g>
<g>
	<defs>
		<path id="SVGID_1_" d="M70.955,34.117c-0.013-0.296-0.168-0.577-0.129-0.874c0.053-0.398,0.018-0.789-0.008-1.184
			c-0.022-0.328-0.084-0.653-0.075-0.985c0.013-0.556-0.055-1.114-0.154-1.653c-0.171-0.927-0.268-1.866-0.488-2.784
			c-0.139-0.58-0.167-1.183-0.328-1.762c-0.046-0.163-0.089-0.328-0.125-0.495c-0.146-0.671-0.33-1.331-0.558-1.98
			c-0.082-0.236-0.219-0.458-0.278-0.686c-0.126-0.49-0.385-0.917-0.551-1.384c-0.084-0.237-0.257-0.429-0.33-0.667
			c-0.208-0.677-0.591-1.274-0.877-1.915c-0.208-0.462-0.457-0.907-0.683-1.361c-0.189-0.377-0.387-0.732-0.664-1.05
			c-0.246-0.284-0.577-0.472-0.915-0.447c-0.376,0.028-0.591-0.055-0.713-0.399c-0.007-0.02-0.032-0.033-0.044-0.052
			c-0.38-0.567-0.792-1.11-1.198-1.658c-0.501-0.678-1.075-1.29-1.673-1.88c-0.494-0.488-1.023-0.94-1.515-1.431
			c-0.657-0.656-1.295-1.332-1.988-1.952c-0.17-0.152-0.243-0.401-0.465-0.484c-0.226-0.085-0.382-0.244-0.52-0.421
			c-0.144-0.185-0.216-0.443-0.519-0.444c-0.029,0-0.052-0.076-0.09-0.098c-0.319-0.191-0.395-0.631-0.778-0.759
			c-0.077-0.026-0.048-0.122-0.082-0.177c-0.12-0.196-0.242-0.394-0.526-0.325c0,0.002,0.002,0.003,0.002,0.005
			c-0.003-0.001-0.007-0.002-0.01-0.003c-0.085,0.02-0.16,0.128-0.287,0.02c0.107-0.073,0.196-0.05,0.287-0.02
			c0.001,0,0.002-0.001,0.004-0.001c0.001,0,0.002,0,0.003-0.001c-0.089-0.22-0.259-0.324-0.49-0.344
			c0,0.003-0.001,0.005-0.001,0.007c-0.003-0.002-0.005-0.004-0.008-0.006c-0.024,0.022-0.044,0.049-0.072,0.063
			C54.06,4.56,54.028,4.526,54.01,4.483c-0.006-0.016-0.002-0.046,0.01-0.058c0.025-0.027,0.059-0.026,0.09-0.006
			c0.025,0.016,0.049,0.035,0.074,0.053c0.001-0.001,0.002-0.002,0.003-0.003c0.002,0,0.004,0.001,0.006,0.001
			c0.011-0.083,0.111-0.196-0.081-0.212c-0.078-0.007-0.154-0.041-0.231-0.06c-0.228-0.056-0.458-0.117-0.648-0.255
			c-0.133-0.097-0.204-0.316-0.429-0.149c-0.004,0.003-0.009,0.005-0.013,0.006c-0.053-0.043-0.094-0.071-0.094-0.071
			c-0.064-0.079-0.131-0.157-0.194-0.238c-0.093-0.12,0.141-0.171,0.081-0.285c-0.2-0.036-0.236,0.116-0.317,0.222l-0.263-0.144
			c-0.014-0.022-0.035-0.038-0.07-0.038l-0.631-0.119c-0.038-0.071-0.068-0.145-0.138-0.191c-0.094-0.062-0.119-0.042-0.127-0.001
			c-0.062-0.043-0.122-0.082-0.162-0.101c-0.077-0.038-0.094-0.047-0.098-0.048c-0.065-0.119-0.134-0.24-0.316-0.142
			c0,0-0.1-0.022-0.224-0.055c-0.041-0.035-0.082-0.073-0.128-0.088c-0.011,0.014-0.021,0.028-0.031,0.042
			c-0.065-0.02-0.127-0.042-0.181-0.065c-0.207-0.089-0.445-0.326-0.445-0.326s-0.326-0.059-0.415-0.148
			c-0.089-0.089-0.534-0.178-0.534-0.178S48,1.676,47.881,1.616c-0.118-0.059-0.445-0.119-0.563-0.178
			c-0.119-0.059-0.415-0.089-0.504-0.089c-0.089,0-0.504-0.059-0.593-0.089c-0.089-0.03-0.623-0.148-0.623-0.148l-0.83-0.237
			l-0.415-0.03c0,0-0.474-0.119-0.593-0.148c-0.119-0.03-0.563-0.089-0.563-0.089s-0.386-0.089-0.504-0.119
			c-0.119-0.03-0.326-0.119-0.326-0.119s-0.267-0.089-0.386-0.089c-0.119,0-0.178-0.089-0.267-0.148
			c-0.089-0.059-0.297-0.03-0.297-0.03s-0.178,0-0.267-0.03c-0.045-0.015-0.127-0.015-0.198-0.011
			c-0.038-0.052-0.11-0.056-0.266-0.062c-0.287-0.012-0.565,0.075-0.848,0.072c-0.736-0.009-1.442,0.139-2.137,0.359
			c-0.142,0.045-0.285,0.084-0.435,0.088c-0.796,0.023-1.592,0.062-2.383,0.152c-0.453,0.052-0.91,0.105-1.348,0.221
			c-0.417,0.11-0.842,0.191-1.256,0.316c-0.176,0.053-0.377,0.161-0.571-0.022c-0.08-0.076-0.222-0.025-0.33,0.011
			c-0.358,0.121-0.703,0.274-1.036,0.451c-0.321,0.171-0.67,0.252-1.017,0.352c-0.223,0.065-0.561-0.104-0.66,0.271
			c-0.002,0.006-0.038,0.005-0.058,0.005c-0.178-0.002-0.342,0.124-0.529,0.048c-0.064-0.026-0.137-0.001-0.193,0.042
			c-0.529,0.4-1.178,0.52-1.781,0.731c-0.495,0.173-0.98,0.377-1.482,0.535c-0.313,0.098-0.619,0.231-0.929,0.346
			c-0.319,0.119-0.655,0.183-0.966,0.333c-0.687,0.33-1.291,0.796-1.957,1.162c-0.287,0.157-0.531,0.393-0.818,0.551
			c-0.419,0.231-0.779,0.537-1.155,0.824c-0.372,0.283-0.717,0.596-1.053,0.918c-0.46,0.441-1,0.788-1.427,1.27
			c-0.385,0.435-0.765,0.874-1.113,1.336c-0.121,0.161-0.267,0.286-0.42,0.386c-0.139,0.091-0.339,0.085-0.228,0.336
			c0.018,0.042-0.052,0.066-0.091,0.086c-0.422,0.223-0.585,0.679-0.904,0.996c-0.093,0.092-0.068,0.177-0.002,0.265
			c0.004,0.001,0.008,0,0.013,0.001c-0.002,0.003-0.003,0.006-0.005,0.009c0.084,0.09,0.19,0.137,0.322,0.137
			c-0.052,0.182-0.155,0.185-0.29,0.126c-0.166-0.074-0.084-0.169-0.033-0.263c-0.001-0.001-0.002-0.002-0.003-0.003
			c-0.002-0.003-0.004-0.005-0.005-0.008c-0.157-0.02-0.277,0.057-0.382,0.161c-0.36,0.356-0.635,0.782-0.961,1.167
			c-0.123,0.145-0.261,0.293-0.326,0.464c-0.065,0.17-0.169,0.298-0.288,0.414c-0.306,0.295-0.47,0.682-0.704,1.022
			c-0.191,0.278-0.295,0.611-0.532,0.852c-0.144,0.146-0.22,0.312-0.285,0.497c-0.146,0.419-0.307,0.833-0.535,1.216
			c-0.074,0.126-0.181,0.226-0.212,0.384c-0.123,0.629-0.434,1.192-0.639,1.793c-0.158,0.462-0.346,0.914-0.466,1.388
			c-0.056,0.22-0.117,0.436-0.19,0.653c-0.099,0.292-0.245,0.562-0.339,0.856c-0.203,0.629-0.387,1.262-0.555,1.902
			c-0.184,0.707-0.31,1.424-0.42,2.145c-0.142,0.938-0.162,1.886-0.219,2.83c-0.047,0.772-0.071,1.547-0.031,2.32
			c0.031,0.591,0.046,1.182,0.096,1.774c0.052,0.612,0.065,1.229,0.119,1.843c0.054,0.613,0.179,1.219,0.187,1.837
			c0.004,0.432-0.008,0.866,0,1.297c0.01,0.557,0.026,1.116,0.045,1.673c0.003,0.1,0.048,0.169,0.102,0.245
			c0.107,0.153,0.301,0.232,0.334,0.454c0.028,0.189,0.228,0.334,0.159,0.559c-0.015,0.049,0.032,0.07,0.076,0.093
			c0.426,0.216,0.467,0.291,0.388,0.736c-0.021,0.117-0.042,0.193,0.097,0.276c0.245,0.146,0.387,0.38,0.382,0.682
			c-0.003,0.142,0.018,0.253,0.182,0.325c0.165,0.072,0.223,0.331,0.124,0.477c-0.108,0.158-0.052,0.342,0.041,0.401
			c0.174,0.111,0.248,0.203,0.174,0.405c-0.031,0.082,0.06,0.118,0.127,0.125c0.087,0.008,0.071-0.064,0.073-0.119
			c0.002-0.047,0.009-0.092,0.092-0.1c0.07,0.138,0.272,0.257,0.041,0.442c-0.028,0.023-0.002,0.061,0.027,0.086
			c0.232,0.2,0.293,0.472,0.31,0.759c0.009,0.143,0.06,0.242,0.161,0.354c0.243,0.268,0.529,0.478,0.808,0.701
			c0.171,0.137,0.392,0.261,0.264,0.554c-0.024,0.055,0.021,0.155,0.114,0.108c0.194-0.097,0.3,0.046,0.361,0.16
			c0.193,0.359,0.575,0.594,0.66,1.022c0.01,0.047,0.062,0.096,0.107,0.127c0.098,0.066,0.146,0.174,0.222,0.252
			c0.202,0.208,0.298,0.48,0.469,0.705c0.321,0.424,0.596,0.884,0.969,1.269c0.03,0.031,0.047,0.078,0.062,0.12
			c0.114,0.34,0.453,0.582,0.428,0.984c-0.001,0.018,0.018,0.044,0.035,0.057c0.311,0.227,0.412,0.655,0.787,0.822
			c0.093,0.041,0.097,0.144,0.136,0.224c0.156,0.316,0.423,0.554,0.729,0.682c0.163,0.068,0.291,0.149,0.413,0.258
			c0.127,0.114,0.24,0.242,0.362,0.361c0.232,0.225,0.247,0.303,0.091,0.592c-0.038,0.07-0.101,0.132-0.038,0.216
			c0.064,0.085,0.143,0.084,0.243,0.064c0.363-0.073,0.932,0.17,1.117,0.484c0.129,0.22,0.303,0.404,0.476,0.578
			c0.351,0.353,0.762,0.641,1.116,0.992c0.094,0.092,0.251,0.114,0.319,0.247c0.109,0.213,0.301,0.331,0.496,0.455
			c0.245,0.158,0.493,0.31,0.599,0.623c0.05,0.147,0.139,0.347,0.312,0.375c0.16,0.026,0.237,0.121,0.331,0.214
			c0.146,0.144,0.275,0.306,0.429,0.441c0.265,0.236,0.624,0.292,0.931,0.45c0.09,0.046,0.211,0.046,0.286,0.141
			c0.065,0.083,0.152,0.139,0.246,0.181c0.338,0.155,0.676,0.311,1.017,0.457c0.436,0.187,0.874,0.368,1.315,0.544
			c0.11,0.044,0.214,0.062,0.352,0.027c0.159-0.04,0.36-0.111,0.525,0.012c0.148,0.111,0.306,0.132,0.484,0.119
			c0.173-0.012,0.327,0.017,0.458,0.169c0.133,0.153,0.307,0.23,0.542,0.221c0.196-0.007,0.44-0.053,0.601,0.152
			c0.035,0.045,0.106,0.053,0.161,0.034c0.251-0.089,0.469-0.002,0.683,0.118c0.048,0.027,0.103,0.063,0.155,0.063
			c0.308-0.001,0.581,0.087,0.859,0.225c0.187,0.093,0.399,0.245,0.645,0.121c0.059-0.03,0.111,0.011,0.148,0.056
			c0.157,0.193,0.348,0.237,0.581,0.152c0.059-0.022,0.135-0.006,0.203,0.001c0.462,0.045,0.904,0.189,1.352,0.301
			c0.153,0.039,0.284,0.076,0.415-0.035c0.081-0.069,0.171-0.059,0.255-0.008c0.083,0.051,0.172,0.053,0.264,0.049
			c0.354-0.017,0.716-0.001,1.058,0.044c0.574,0.074,1.151,0.033,1.723,0.105c0.08,0.01,0.214,0.041,0.27-0.089
			c0.015-0.036,0.061-0.058,0.08-0.025c0.092,0.157,0.205,0.101,0.321,0.042c0.192,0.273,0.378,0.045,0.563-0.01
			c0.066-0.02,0.105-0.047,0.174,0.023c0.182,0.184,0.276,0.183,0.504,0.038c0.05-0.032,0.113-0.075,0.156-0.04
			c0.16,0.134,0.382,0.032,0.546,0.155c0.074,0.055,0.122,0.005,0.125-0.087c0.001-0.042,0.005-0.161,0.047-0.099
			c0.078,0.116,0.209,0.016,0.268,0.115c0.129,0.217,0.347,0.202,0.549,0.188c0.26-0.018,0.523-0.046,0.777-0.102
			c0.404-0.088,0.801-0.197,1.213-0.253c0.291-0.04,0.593-0.082,0.86-0.195c0.242-0.102,0.472-0.234,0.723-0.325
			c0.142-0.051,0.275-0.131,0.419-0.033c0.182,0.125,0.236-0.211,0.416-0.106c0.098,0.057,0.196,0.031,0.27-0.066
			c0.035-0.045,0.085-0.076,0.146-0.081c0.344-0.031,0.653-0.146,0.925-0.364c0.058-0.046,0.148-0.053,0.224-0.073
			c0.108-0.027,0.384-0.194,0.389-0.266c0.013-0.16,0.086-0.153,0.206-0.111c0.402,0.14,0.542,0.06,0.595-0.33
			c0.095,0.029,0.104,0.216,0.232,0.154c0.105-0.05,0.138,0.016,0.202,0.055c0.278,0.168,0.376,0.134,0.516-0.17
			c0.102-0.218,0.129-0.237,0.311-0.084c0.147,0.123,0.269,0.131,0.432,0.047c0.12-0.062,0.268-0.147,0.384-0.125
			c0.291,0.056,0.481-0.155,0.671-0.266c0.347-0.202,0.707-0.374,1.068-0.539c0.15-0.069,0.331-0.052,0.388-0.262
			c0.018-0.068,0.093-0.022,0.147-0.016c0.205,0.022,0.208,0.019,0.208-0.208c0-0.047-0.013-0.093,0.041-0.112
			c0.074-0.025,0.095,0.025,0.115,0.085c0.035,0.106,0.136,0.168,0.203,0.084c0.081-0.1,0.225-0.133,0.267-0.255
			c0.064-0.184,0.209-0.251,0.398-0.277c-0.031-0.075-0.057-0.126-0.073-0.179c-0.076-0.257-0.057-0.278,0.22-0.26
			c0.115,0.007,0.252,0.01,0.309-0.092c0.066-0.119-0.127-0.139-0.145-0.24c-0.002-0.011,0-0.023,0-0.034
			c0.181,0.003,0.18,0.003,0.312-0.248c0.014-0.026,0.06-0.033,0.082-0.057c0.07-0.073,0.134-0.15,0.203-0.223
			c0.011-0.011,0.042-0.004,0.064-0.005c0.083,0.076-0.058,0.176,0.045,0.27c0.102-0.007,0.224-0.015,0.335-0.023
			c0.024-0.168,0.046-0.316,0.074-0.516c0.144,0.191,0.251,0.193,0.437,0.125c0.184-0.068,0.3-0.099,0.282-0.318
			c-0.015-0.176,0.109-0.218,0.245-0.178c0.243,0.071,0.418-0.075,0.606-0.169c0.129-0.064,0.016-0.22,0.071-0.31
			c0.057-0.095,0.27,0.019,0.278-0.179c0.005-0.118,0.101-0.155,0.175-0.225c0.163-0.154,0.363-0.218,0.558-0.291
			c0.303-0.114,0.566-0.327,0.894-0.342c0.011-0.08-0.015-0.112-0.061-0.134c-0.078-0.037-0.099-0.092-0.043-0.163
			c0.041-0.051,0.094-0.061,0.151-0.025c0.065,0.041,0.114,0.117,0.228,0.083c0.05-0.215,0.124-0.429,0.429-0.365
			c0.017,0.003,0.041-0.017,0.059-0.029c0.158-0.117,0.222-0.319,0.354-0.44c0.132-0.121,0.363-0.119,0.501-0.266
			c0.015-0.016,0.019-0.041,0.029-0.061c0.064-0.124,0.134-0.096,0.209-0.01c0.03,0.034,0.066,0.063,0.172,0.035
			c-0.122-0.253,0.071-0.443,0.148-0.667c0.039-0.114,0.088-0.172,0.226-0.108c0.141,0.065,0.268-0.001,0.329-0.146
			c0.031-0.073,0.055-0.15,0.072-0.228c0.018-0.089,0.068-0.133,0.137-0.069c0.085,0.079,0.108,0.054,0.171-0.026
			c0.051-0.065,0.12-0.098,0.06-0.194c-0.036-0.056-0.088-0.108-0.088-0.183c0.041-0.066,0.11-0.004,0.151-0.029
			c0.1-0.062,0.266-0.054,0.288-0.192c0.011-0.075-0.024-0.14,0.086-0.103c0.144,0.049,0.18-0.04,0.211-0.147
			c0.048-0.166,0.108-0.309,0.31-0.358c0.119-0.029,0.207-0.135,0.207-0.282c0-0.123,0.056-0.215,0.164-0.279
			c0.072-0.042,0.12-0.115,0.14-0.19c0.069-0.249,0.215-0.422,0.445-0.548c0.152-0.083,0.145-0.184,0.019-0.319
			c-0.159-0.171-0.157-0.189,0.008-0.358c0.065-0.067,0.138-0.11,0.225-0.147c0.128-0.055,0.309-0.137,0.313-0.259
			c0.01-0.293,0.215-0.378,0.407-0.494l-0.008,0.009c0.215-0.168,0.415-0.34,0.366-0.661c-0.011-0.071,0.069-0.126,0.145-0.076
			c0.18,0.118,0.337,0.06,0.496-0.027c0.006-0.098-0.038-0.168-0.072-0.239c-0.118-0.246-0.079-0.485,0.018-0.725
			c0.042-0.103,0.104-0.182,0.225-0.174c0.281,0.018,0.042-0.167,0.093-0.243c0.048,0.006,0.092,0.014,0.137,0.018
			c0.311,0.032,0.312,0.012,0.406-0.29c0.053-0.168,0.062-0.39,0.174-0.493c0.189-0.172,0.214-0.366,0.172-0.565
			c-0.05-0.236,0.061-0.36,0.22-0.48L67.229,46.4c0.124-0.485,0.123-0.485,0.477-0.413c0.015,0.003,0.035-0.021,0.055-0.033
			c0.022-0.087-0.101-0.125-0.075-0.213c0.216-0.02,0.337-0.051,0.469-0.125c-0.407-0.202-0.297-0.182-0.229-0.673
			c0.166-0.014,0.118,0.207,0.262,0.236c0.065-0.086,0.183-0.133,0.182-0.271c-0.033-0.016-0.062-0.035-0.094-0.045
			c-0.134-0.044-0.168-0.081-0.135-0.26c0.026-0.144,0.158-0.206,0.152-0.335c-0.003-0.074,0.102-0.161,0.005-0.216
			c-0.113-0.064-0.154,0.047-0.202,0.124c-0.005,0.007-0.039-0.003-0.059-0.005c0.062-0.287,0.092-0.317,0.333-0.327
			c0.103-0.004,0.194-0.03,0.272-0.118c-0.066-0.08-0.129-0.146-0.18-0.219c-0.091-0.129-0.061-0.196,0.098-0.221
			c0.041-0.007,0.085,0.003,0.127,0.007c0.001-0.042,0.002-0.084,0.004-0.126c-0.003,0.001-0.006,0.001-0.009,0.001
			c0.002-0.003,0.003-0.006,0.004-0.008c-0.054,0-0.108,0-0.175,0c0.03-0.105,0.086-0.168,0.168-0.14
			c0.061,0.021,0.034,0.088,0.006,0.14c0.001,0,0.003,0,0.005,0c0,0.002,0,0.004,0,0.007c0.161-0.02,0.247-0.086,0.255-0.28
			c0.004-0.094-0.023-0.294,0.122-0.305c0.143-0.011,0.048,0.203,0.147,0.271c0.009,0.006,0.02,0.009,0.044,0.019
			c0.074-0.17,0.14-0.342,0.331-0.431c0.157-0.074,0.155-0.242,0.144-0.392c-0.012-0.187-0.161-0.11-0.262-0.125
			c-0.064-0.009-0.103-0.048-0.098-0.115c0.005-0.058,0.057-0.058,0.099-0.074c0.143-0.053,0.285,0.045,0.434,0.017
			c-0.026-0.1-0.118-0.161-0.073-0.267c0.05-0.116-0.044-0.221-0.045-0.329c-0.003-0.227-0.234,0.012-0.265-0.132
			c0.03-0.062,0.066-0.109,0.126-0.118c0.089-0.011,0.188-0.038,0.266-0.011c0.091,0.032,0.053,0.133,0.04,0.212
			c-0.006,0.035,0.018,0.064,0.056,0.069c0.037,0.005,0.07-0.008,0.086-0.042c0.014-0.03,0.02-0.064,0.026-0.098
			c0.023-0.146,0.116-0.346,0.054-0.428c-0.167-0.221,0.123-0.222,0.122-0.345c0-0.022-0.011-0.044-0.018-0.066
			c-0.027-0.095,0.001-0.174,0.052-0.257c0.15-0.246,0.178-0.537,0.279-0.8c0.135-0.353,0.088-0.726,0.188-1.089
			c0.142-0.515,0.188-1.064,0.206-1.609c0.013-0.383,0.036-0.764,0.032-1.148C71.037,34.899,70.973,34.51,70.955,34.117z"/>
	</defs>
	<clipPath id="SVGID_2_">
		<use xlink:href="#SVGID_1_"  overflow="visible"/>
	</clipPath>
	<g clip-path="url(#SVGID_2_)">
		<g>
			<path fill="#7C242F" d="M5.757,8.348c0,0,3.067-1.424,5.093-0.548c0,0,1.424,14.019,1.807,14.786
				c0.383,0.767-2.738,1.314-4.819,0.493l-0.767-8.16L5.757,8.348z"/>
			<path fill="#7C242F" d="M5.009,1.174C5.375,4.479,5.68,7.486,5.68,7.486c2.049-0.726,5.093-0.548,5.093-0.548L9.62,1.174H5.009z"
				/>
			<path fill="#7C242F" d="M7.893,23.955c0,0,3.505,0.602,4.929-0.219l-0.164,1.424l0.548,5.367l1.15,8.488l0.602,0.986
				c0,0-1.314,1.04-2.683,1.095c0,0-1.369,0.055-1.971-0.438l-0.055-2.738L8.824,27.679l-0.219-2.026L7.893,23.955z"/>
			<path fill="#7C242F" d="M10.576,41.479l0.876,0.109l2.026-0.109l0.876-0.438l0.493-0.274l0.219,1.205l1.479,12.705l0.548,2.574
				l0.712,1.807l-1.752,0.821c0,0-1.971,0.219-3.067-0.274l-1.095-10.295l-0.602-4.545l-0.383-1.862L10.576,41.479z"/>
			<path fill="#7C242F" d="M14.41,66.972h4.24l-0.9-4.956l0.164-2.19c-1.752,1.314-4.983,0.274-4.983,0.274l0.767,2.519
				L14.41,66.972z"/>
			<polygon fill="#7C242F" points="18.538,66.972 19.174,62.782 19.749,59.414 15.231,58.511 14.821,61.304 13.692,66.972 			"/>
			<path fill="#7C242F" d="M15.971,57.854c0,0,0.986,0.493,2.218,0.575c0,0,0.821,0.164,1.479,0.493l2.054-14.293l0.329-3.779
				l0.411-0.575c0,0-0.493-0.739-1.15-0.821c0,0-2.546,0.082-2.875-0.082l-0.246,1.232l-1.643,11.5L15.971,57.854z"/>
			<path fill="#7C242F" d="M18.435,38.878c0,0,2.136-0.246,3.532,0.329l0.739,0.411l0.164-1.314l1.725-11.418l1.068-3.943
				c0,0-0.739-0.657-1.643-0.821c0,0-2.3-0.411-2.957-0.329l-0.082,2.054l-0.739,4.6L18.435,38.878z"/>
			<path fill="#7C242F" d="M21.064,20.888c0,0,0.904,0.411,2.136,0.575c0,0,2.3,0.246,2.711,1.068v-2.136l2.464-13.307l0.329-0.657
				c0,0-2.464-1.643-5.175-0.493l-0.329,4.354l-1.314,8.297L21.064,20.888z"/>
			<path fill="#7C242F" d="M24.694,1.174l-0.591,2.218l-0.411,1.561c0,0,3.45-0.164,5.011,0.986L28.95,4.87l0.164-3.286l0.072-0.411
				H24.694z"/>
		</g>
		<g>
			<path fill="#7C242F" d="M26.184,15.467c0,0,2.136-6.9,10.788-11.226c0,0-3.176,9.31-10.843,11.884L26.184,15.467z"/>
			<path fill="#7C242F" d="M26.567,15.412c0,0,4.6-2.026,11.5,0.383c0,0-6.736,3.122-11.938,0.329L26.567,15.412z"/>
		</g>
		<g>
			<path fill="#7C242F" d="M13.092,33.183c0,0-0.193-6.081,5.51-11.901c0,0,0.026,8.286-5.374,12.44L13.092,33.183z"/>
			<path fill="#7C242F" d="M13.382,33.034c0,0,3.107-2.876,9.264-2.851c0,0-4.507,4.335-9.417,3.538L13.382,33.034z"/>
		</g>
		<g>
			<path fill="#7C242F" d="M8.602,19.224c0,0-1.089-3.55-5.036-6.85v3.992c1.327,1.423,3.007,2.71,5.08,3.411L8.602,19.224z"/>
			<path fill="#7C242F" d="M8.28,19.177c0,0-1.769-0.784-4.713-0.67v2.206c1.631,0.117,3.445-0.062,5.08-0.935L8.28,19.177z"/>
		</g>
		<path fill="#7C242F" d="M18.883,47.464c0,0,5.352-3.796,13.721-2.143C32.604,45.321,24.35,50.483,18.883,47.464z"/>
		<path fill="#7C242F" d="M18.764,47.149c0,0,4.959,0.721,8.716,6.045C27.48,53.194,20.196,51.699,18.764,47.149z"/>
		<g>
			<path fill="#7C242F" d="M28.112,35.118c0,0,4.698-1.868,10.662,0.894C38.774,36.012,31.655,38.374,28.112,35.118z"/>
			<path fill="#7C242F" d="M28.115,35.164c0,0,1.491-4.224,6.809-6.595C34.924,28.569,32.353,34.696,28.115,35.164z"/>
			<path fill="#7C242F" d="M27.997,35.205c0,0-1.114-3.6,1.286-7.871C29.283,27.334,30.623,32.762,27.997,35.205z"/>
			<g>
				<path fill="#7C242F" d="M22.231,38.418l-0.089-0.23c0.039-0.015,3.949-1.546,5.991-3.212l0.156,0.191
					C26.216,36.858,22.271,38.403,22.231,38.418z"/>
			</g>
		</g>
		<g>
			<path fill="#7C242F" d="M3.567,49.588v2.036c2.037,0.886,4.613,1.526,6.803,0.566C10.37,52.191,7.907,50.08,3.567,49.588z"/>
			<path fill="#7C242F" d="M10.352,52.233c0,0-0.04-4.479-4.302-8.447C6.05,43.786,6.495,50.416,10.352,52.233z"/>
			<path fill="#7C242F" d="M10.45,52.311c0,0,2.222-3.044,1.337-7.863C11.787,44.448,8.759,49.148,10.45,52.311z"/>
			<g>
				<path fill="#7C242F" d="M14.862,57.22c-0.032-0.027-3.264-2.768-4.675-5.039l0.209-0.13c1.391,2.238,4.593,4.954,4.625,4.981
					L14.862,57.22z"/>
			</g>
		</g>
		<g>
			<g>
				<path fill="#7C242F" d="M11.01,15.616l-0.222-0.107c0.611-1.269,2.788-4.126,2.881-4.247l0.196,0.15
					C13.842,11.441,11.609,14.37,11.01,15.616z"/>
			</g>
			<path fill="#7C242F" d="M13.365,11.839c0,0,3.691-0.758,6.277-4.92C19.643,6.919,14.241,8.361,13.365,11.839z"/>
			<path fill="#7C242F" d="M11.7,14.276c0,0,2.453,0.257,4.89-1.829C16.589,12.447,12.934,12.279,11.7,14.276z"/>
			<path fill="#7C242F" d="M12.302,13.312c0,0-0.737-1.625,0.138-3.775C12.44,9.537,13.391,12.008,12.302,13.312z"/>
		</g>
	</g>
</g>
<g>
	<path fill="#FFFFFF" d="M47.651,20.892l-1.947,0.92l0.212,0.672l-4.071,0.921l-0.425,0.248l-1.558,0.425l-1.203,0.283l-0.354,0.071
		l-0.602,0.106l-0.567,0.212l-0.035,0.106l-0.071,0.779l-0.036,0.814v0.92l-0.141,0.673l-0.177,0.46l-0.212,2.407l-0.036,0.602
		l0.036,0.92l-0.225,0.283l-0.168,0.602l-0.28,0.389v0.212l-0.425,0.531l0.036,0.283l-0.107,0.106v0.142l-0.247,0.885v0.035
		l-0.107,0.425l-0.248,0.637l0.071,0.602l-0.496,0.743l0.071,0.212l-0.248,0.637l-0.425,0.708l0.141,0.177l-0.177,0.602
		l-0.106,0.672v0.602l-0.141,0.106l-0.142,0.283l0.142,0.141l-0.178,0.46l-0.177,0.496l0.107,0.142l-0.036,0.389l-0.141,0.991
		l-0.107,0.39l-0.106,0.46l-0.036,0.991l-0.283,0.956l-0.46,0.567l-0.247,0.496h-0.142l-0.46,0.602l-0.07,0.283l-0.425,0.46
		l-1.062,0.389H28.57l-0.389,0.177h-0.248h-0.107h-0.425h-0.247h-0.283h-0.46l-0.566-0.177h-0.319l-0.46-0.066l-0.531-0.1
		l-1.027-0.266l-0.318-0.3l-0.885-0.2l-0.531-0.2l-1.345-0.885L20.18,48.15l-0.212-0.248l-0.141-0.212l-0.389-0.212l-0.071-0.389
		l-0.46-0.637l-0.07-0.248l-0.39-0.319l-0.283-0.85l-0.107-0.106v-0.283l-0.247-0.177l0.283-0.425l-0.177-0.106l-0.071-0.283
		l0.071-1.204l0.248-0.531l0.283-1.097V40.61l0.39-0.743l0.07-0.425l0.602-1.062h0.071v0.743l-0.074,0.177l-0.065,0.39l0.211,0.177
		l0.141,0.424l-0.071,0.106l-0.141,0.425l0.141,0.495l0.071,0.531l-0.071,0.212l0.46,0.354l0.212-0.071l0.036,0.177l0.212,0.885
		v0.106l-0.212,0.531l0.248,0.036l0.105-0.142l0.212,0.071l0.884,1.027h0.177l0.672,0.251l0.283,0.251l0.782,0.313l0.141,0.141
		h0.461l0.602,0.212l0.745,0.354l0.638,0.212l0.32,0.141l0.815-0.067l0.851-0.034l0.425-0.303l0.451-0.203l0.248-0.496
		c0.26-0.283,0.355-0.483,0.283-0.601c0-0.023,0.071-0.2,0.213-0.531c0.141-0.33,0.201-0.566,0.178-0.708V42.8l0.177-0.53
		l0.212-0.815l0.071-2.158l0.177-0.814v-1.486l-0.036-1.026v-2.053l0.107-0.389v-0.708l0.177-1.805V30.59v-0.497l0.106-0.319v-0.39
		v-1.242l0.208-1.171l0.29-1.953l-1.136,0.149l-0.814,0.009l-3.009,0.283l-1.416,0.177l-0.46,0.142h-0.141l-0.991,0.177h-0.283
		l-1.275,0.071l-0.248-0.106l-0.283-0.496l-0.212-0.46h0.212v-0.248l0.637-0.673l0.708-0.283l2.796-1.275l0.637-0.354l0.319-0.142
		l0.177,0.036l0.531-0.142l0.177-0.106l0.283,0.212l0.141-0.071l0.212-0.354l-0.177-0.248l0.744-0.142l0.177,0.106l0.743-0.177
		l0.744-0.319l0.106-0.177v-0.106l0.354-0.036l1.169-0.071h0.283l0.142-0.103l-0.142-0.548l0.178-0.034l0.177-1.165l0.07-0.205
		l0.178-0.068l0.495,0.142l-0.141-0.46h0.141l0.212,0.212l0.177-0.071v-0.142l0.071-0.602l0.496,0.283l0.779,0.92h0.673l0.602-0.177
		l0.991,0.106l0.177,0.071l0.708-0.071l0.141,0.106h0.248l0.46-0.106l0.318-0.142l0.708-0.071v0.106l-0.178,0.106v0.071
		l-0.177,0.106l0.355,0.106l0.956-0.177l0.177-0.106h0.744l0.531-0.123l0.283-0.163l0.602-0.082l0.885-0.163h1.061h0.956
		l1.487,0.743h2.407C49.763,19.24,48.878,19.971,47.651,20.892z"/>
	<path fill="#FFFFFF" d="M55.234,28.649l0.424-0.531h0.355l0.036,0.141h0.743l0.318,0.142l0.921,0.672h0.743l0.283,0.177
		l0.283,0.425l0.036,0.389l0.425,0.566l1.061,0.921l0.744,1.274l-0.249,0.708l-0.852,0.637l-0.958,0.673l-1.206-0.319l-1.029,0.105
		l-0.213,0.211L56.46,35.51l-0.887,1.055l-0.461,0.668l-0.596,0.537l-1.733,1.88l-0.601,0.78l-0.107,0.071l-0.884,1.277l-0.353,0.39
		l-0.071,0.213l-0.495,0.532l-0.601,0.922h-0.141l-0.672,0.92l-0.53,0.601l-0.601,1.098l-0.46,0.637l-0.318,0.672l-0.354,0.602
		l-0.247,1.132l-0.425,0.991l-0.106,1.522l0.07,0.884l0.563,1.062l1.021,0.672l2.287,0.602l3.799,0.248l4.153-0.503l3.576-0.945
		c-0.779,0.543-1.557,1.086-2.336,1.628l-1.31,0.531l-0.814,0.071l-0.566,0.531l-2.833,0.886l-2.053,0.248l-2.266,0.177
		l-3.505-0.567l-1.912-0.779l-1.557-1.062l-1.275-1.275l-0.85-1.274l-0.531-1.31l-0.212-0.814v-0.673L39.126,49.5l0.141-1.806
		l0.319-0.602l-0.036-0.531l0.212-0.177l0.036-0.602l0.141-0.46l0.319-0.602l0.283-0.743l0.283-0.602l1.38-2.195l0.531-0.743
		l0.389-0.389l0.354-0.602l1.168-1.345l1.629-1.911l0.672-0.743l0.39-0.319l0.141-0.283l0.318-0.319l1.204-1.062l0.672-0.672
		l1.77-1.593l0.814-0.567l1.664-1.38l0.283-0.071l0.107-0.106L55.234,28.649z"/>
</g>
</svg>
